<?xml version="1.0" encoding="UTF-8" standalone="no"?>
<svg
   xmlns:dc="http://purl.org/dc/elements/1.1/"
   xmlns:cc="http://creativecommons.org/ns#"
   xmlns:rdf="http://www.w3.org/1999/02/22-rdf-syntax-ns#"
   xmlns:svg="http://www.w3.org/2000/svg"
   xmlns="http://www.w3.org/2000/svg"
   xmlns:sodipodi="http://sodipodi.sourceforge.net/DTD/sodipodi-0.dtd"
   xmlns:inkscape="http://www.inkscape.org/namespaces/inkscape"
   inkscape:version="1.0 (4035a4fb49, 2020-05-01)"
   sodipodi:docname="vineyard64.svg"
   viewBox="0 0 64 64"
   height="64"
   width="64"
   id="svg2"
   version="1.1">
  <metadata
     id="metadata8">
    <rdf:RDF>
      <cc:Work
         rdf:about="">
        <dc:format>image/svg+xml</dc:format>
        <dc:type
           rdf:resource="http://purl.org/dc/dcmitype/StillImage" />
        <dc:title></dc:title>
      </cc:Work>
    </rdf:RDF>
  </metadata>
  <defs
     id="defs6" />
  <sodipodi:namedview
     inkscape:document-rotation="0"
     fit-margin-bottom="0"
     fit-margin-right="0"
     fit-margin-left="0"
     fit-margin-top="0"
     inkscape:current-layer="svg2"
     inkscape:window-maximized="0"
     inkscape:window-y="0"
     inkscape:window-x="0"
     inkscape:cy="5.8825755"
     inkscape:cx="51.526122"
     inkscape:zoom="3.9441055"
     showgrid="false"
     id="namedview4"
     inkscape:window-height="1008"
     inkscape:window-width="1501"
     inkscape:pageshadow="2"
     inkscape:pageopacity="0"
     guidetolerance="10"
     gridtolerance="10"
     objecttolerance="10"
     borderopacity="1"
     bordercolor="#666666"
     pagecolor="#ffffff" />
  <g
     style="stroke-width:0.5"
     transform="scale(2)"
     id="g821">
    <rect
       style="color:#000000;clip-rule:nonzero;display:inline;overflow:visible;visibility:visible;opacity:1;isolation:auto;mix-blend-mode:normal;color-interpolation:sRGB;color-interpolation-filters:linearRGB;solid-color:#000000;solid-opacity:1;vector-effect:none;fill:#dcfebb;fill-opacity:1;fill-rule:evenodd;stroke:none;stroke-width:0.2;stroke-linecap:butt;stroke-linejoin:miter;stroke-miterlimit:4;stroke-dasharray:none;stroke-dashoffset:0;stroke-opacity:1;marker:none;color-rendering:auto;image-rendering:auto;shape-rendering:auto;text-rendering:auto;enable-background:accumulate"
       id="rect4547"
       width="32"
       height="32"
       x="0"
       y="0" />
    <g
       style="opacity:1;fill:#aa8847;fill-opacity:1;stroke:none"
       id="g2540">
      <path
         id="path2542"
         d="m 4.2014981,29.5 c 0.02038,-1.65 0.2444986,-2.203936 0.498042,-1.230968 0.2535434,0.972967 0.2368691,2.322967 -0.037054,3 C 4.388563,31.946064 4.1811184,31.15 4.2014981,29.5 Z m 7.9999999,0 c 0.02038,-1.65 0.244498,-2.203936 0.498042,-1.230968 0.253543,0.972967 0.236869,2.322967 -0.03705,3 C 12.388563,31.946064 12.181118,31.15 12.201498,29.5 Z m 8,0 c 0.02038,-1.65 0.244498,-2.203936 0.498042,-1.230968 0.253543,0.972967 0.236869,2.322967 -0.03705,3 C 20.388563,31.946064 20.181118,31.15 20.201498,29.5 Z m 8,0 c 0.02038,-1.65 0.244498,-2.203936 0.498042,-1.230968 0.253543,0.972967 0.236869,2.322967 -0.03705,3 C 28.388563,31.946064 28.181118,31.15 28.201498,29.5 Z M 0.2385521,24 c 0,-1.925 0.20579527,-2.7125 0.45732281,-1.75 0.25152755,0.9625 0.25152755,2.5375 0,3.5 C 0.44434737,26.7125 0.2385521,25.925 0.2385521,24 Z m 8,0 c 0,-1.925 0.2057953,-2.7125 0.4573228,-1.75 0.2515276,0.9625 0.2515276,2.5375 0,3.5 C 8.4443474,26.7125 8.2385521,25.925 8.2385521,24 Z m 7.9999999,0 c 0,-1.925 0.205795,-2.7125 0.457323,-1.75 0.251527,0.9625 0.251527,2.5375 0,3.5 -0.251528,0.9625 -0.457323,0.175 -0.457323,-1.75 z m 8,0 c 0,-1.925 0.205795,-2.7125 0.457323,-1.75 0.251527,0.9625 0.251527,2.5375 0,3.5 -0.251528,0.9625 -0.457323,0.175 -0.457323,-1.75 z M 4.2014981,18.5 c 0.02038,-1.65 0.2444986,-2.203936 0.498042,-1.230968 0.2535434,0.972967 0.2368691,2.322967 -0.037054,3 C 4.388563,20.946064 4.1811184,20.15 4.2014981,18.5 Z m 7.9999999,0 c 0.02038,-1.65 0.244498,-2.203936 0.498042,-1.230968 0.253543,0.972967 0.236869,2.322967 -0.03705,3 C 12.388563,20.946064 12.181118,20.15 12.201498,18.5 Z m 8,0 c 0.02038,-1.65 0.244498,-2.203936 0.498042,-1.230968 0.253543,0.972967 0.236869,2.322967 -0.03705,3 C 20.388563,20.946064 20.181118,20.15 20.201498,18.5 Z m 8,0 c 0.02038,-1.65 0.244498,-2.203936 0.498042,-1.230968 0.253543,0.972967 0.236869,2.322967 -0.03705,3 C 28.388563,20.946064 28.181118,20.15 28.201498,18.5 Z m -27.99999988,-5 c 0.0203797,-1.65 0.24449859,-2.203936 0.498042,-1.230968 0.25354341,0.972967 0.23686912,2.322967 -0.037054,3 C 0.38856304,15.946064 0.18111843,15.15 0.20149812,13.5 Z m 7.99999998,0 c 0.02038,-1.65 0.2444986,-2.203936 0.498042,-1.230968 0.2535434,0.972967 0.2368691,2.322967 -0.037054,3 C 8.388563,15.946064 8.1811184,15.15 8.2014981,13.5 Z m 7.9999999,0 c 0.02038,-1.65 0.244498,-2.203936 0.498042,-1.230968 0.253543,0.972967 0.236869,2.322967 -0.03705,3 C 16.388563,15.946064 16.181118,15.15 16.201498,13.5 Z m 8,0 c 0.02038,-1.65 0.244498,-2.203936 0.498042,-1.230968 0.253543,0.972967 0.236869,2.322967 -0.03705,3 C 24.388563,15.946064 24.181118,15.15 24.201498,13.5 Z M 4.2385521,8 c 0,-1.925 0.2057953,-2.7125 0.4573228,-1.75 0.2515276,0.9625 0.2515276,2.5375 0,3.5 C 4.4443474,10.7125 4.2385521,9.925 4.2385521,8 Z m 7.9999999,0 c 0,-1.925 0.205795,-2.7125 0.457323,-1.75 0.251527,0.9625 0.251527,2.5375 0,3.5 C 12.444347,10.7125 12.238552,9.925 12.238552,8 Z m 8,0 c 0,-1.925 0.205795,-2.7125 0.457323,-1.75 0.251527,0.9625 0.251527,2.5375 0,3.5 C 20.444347,10.7125 20.238552,9.925 20.238552,8 Z m 8,0 c 0,-1.925 0.205795,-2.7125 0.457323,-1.75 0.251527,0.9625 0.251527,2.5375 0,3.5 C 28.444347,10.7125 28.238552,9.925 28.238552,8 Z M 0.20149812,2.5 c 0.0203797,-1.65 0.24449859,-2.20393565 0.498042,-1.2309681 0.25354341,0.9729675 0.23686912,2.3229675 -0.037054,3 C 0.38856304,4.9460644 0.18111843,4.15 0.20149812,2.5 Z m 7.99999998,0 c 0.02038,-1.65 0.2444986,-2.20393565 0.498042,-1.2309681 0.2535434,0.9729675 0.2368691,2.3229675 -0.037054,3 C 8.388563,4.9460644 8.1811184,4.15 8.2014981,2.5 Z m 7.9999999,0 c 0.02038,-1.65 0.244498,-2.20393565 0.498042,-1.2309681 0.253543,0.9729675 0.236869,2.3229675 -0.03705,3 C 16.388563,4.9460644 16.181118,4.15 16.201498,2.5 Z m 8,0 c 0.02038,-1.65 0.244498,-2.20393565 0.498042,-1.2309681 0.253543,0.9729675 0.236869,2.3229675 -0.03705,3 C 24.388563,4.9460644 24.181118,4.15 24.201498,2.5 Z"
         style="color:#000000;font-style:normal;font-variant:normal;font-weight:normal;font-stretch:normal;font-size:medium;line-height:normal;font-family:sans-serif;font-variant-ligatures:normal;font-variant-position:normal;font-variant-caps:normal;font-variant-numeric:normal;font-variant-alternates:normal;font-variant-east-asian:normal;font-feature-settings:normal;font-variation-settings:normal;text-indent:0;text-align:start;text-decoration:none;text-decoration-line:none;text-decoration-style:solid;text-decoration-color:#000000;letter-spacing:normal;word-spacing:normal;text-transform:none;writing-mode:lr-tb;direction:ltr;text-orientation:mixed;dominant-baseline:auto;baseline-shift:baseline;text-anchor:start;white-space:normal;shape-padding:0;shape-margin:0;inline-size:0;clip-rule:nonzero;display:inline;overflow:visible;visibility:visible;isolation:auto;mix-blend-mode:normal;color-interpolation:sRGB;color-interpolation-filters:linearRGB;solid-color:#000000;solid-opacity:1;vector-effect:none;fill:#aa8847;fill-opacity:1;fill-rule:nonzero;stroke:none;stroke-width:0.2;stroke-linecap:butt;stroke-linejoin:miter;stroke-miterlimit:4;stroke-dasharray:none;stroke-dashoffset:0;stroke-opacity:1;color-rendering:auto;image-rendering:auto;shape-rendering:auto;text-rendering:auto;enable-background:accumulate;stop-color:#000000;stop-opacity:1" />
      <path
         id="path2544"
         d="M 0.50195312 0.6953125 C 0.46494141 0.68500849 0.42105032 0.68956822 0.38867188 0.70703125 C 0.32391498 0.74195731 0.29599427 0.79787485 0.26953125 0.86328125 C 0.16367917 1.1249068 0.11180655 1.6686584 0.1015625 2.4980469 C 0.091318452 3.3274353 0.13552767 3.9413539 0.22460938 4.2832031 C 0.2468798 4.3686654 0.27158046 4.4361713 0.3046875 4.4921875 C 0.33779454 4.5482037 0.38665744 4.6024927 0.46289062 4.609375 C 0.53912381 4.6162573 0.59850926 4.5702153 0.640625 4.5175781 C 0.68274074 4.464941 0.71951832 4.3964617 0.75585938 4.3066406 C 1.0465878 3.5880718 1.05638 2.2399857 0.796875 1.2441406 C 0.73199874 0.99517934 0.67966834 0.84317696 0.58984375 0.75 C 0.5673876 0.72670576 0.53896484 0.70561651 0.50195312 0.6953125 z M 8.5019531 0.6953125 C 8.4649414 0.68500848 8.4210503 0.68956822 8.3886719 0.70703125 C 8.323915 0.74195732 8.2959943 0.79787486 8.2695312 0.86328125 C 8.1636792 1.1249068 8.1118067 1.6686585 8.1015625 2.4980469 C 8.0913184 3.3274353 8.1355277 3.9413539 8.2246094 4.2832031 C 8.2468798 4.3686654 8.2715805 4.4361713 8.3046875 4.4921875 C 8.3377945 4.5482037 8.3866574 4.6024927 8.4628906 4.609375 C 8.5391238 4.6162573 8.5985093 4.5702153 8.640625 4.5175781 C 8.6827407 4.464941 8.7195183 4.3964617 8.7558594 4.3066406 C 9.0465878 3.5880718 9.05638 2.2399857 8.796875 1.2441406 C 8.7319987 0.99517934 8.6796683 0.84317697 8.5898438 0.75 C 8.5673876 0.72670576 8.5389648 0.70561652 8.5019531 0.6953125 z M 16.501953 0.6953125 C 16.464941 0.68500848 16.42105 0.68956821 16.388672 0.70703125 C 16.323915 0.74195733 16.295994 0.79787486 16.269531 0.86328125 C 16.163679 1.1249068 16.111807 1.6686585 16.101562 2.4980469 C 16.091318 3.3274353 16.135527 3.9413537 16.224609 4.2832031 C 16.24688 4.3686655 16.27158 4.4361713 16.304688 4.4921875 C 16.337795 4.5482037 16.386658 4.6024928 16.462891 4.609375 C 16.539124 4.6162572 16.598509 4.5702152 16.640625 4.5175781 C 16.682741 4.464941 16.719518 4.3964617 16.755859 4.3066406 C 17.046583 3.5880721 17.05638 2.2399857 16.796875 1.2441406 C 16.731999 0.99517935 16.679668 0.84317694 16.589844 0.75 C 16.567388 0.72670577 16.538965 0.70561652 16.501953 0.6953125 z M 24.501953 0.6953125 C 24.464941 0.68500848 24.42105 0.68956821 24.388672 0.70703125 C 24.323915 0.74195733 24.295994 0.79787486 24.269531 0.86328125 C 24.163679 1.1249068 24.111807 1.6686585 24.101562 2.4980469 C 24.091318 3.3274353 24.135527 3.9413537 24.224609 4.2832031 C 24.24688 4.3686655 24.27158 4.4361713 24.304688 4.4921875 C 24.337795 4.5482037 24.386658 4.6024928 24.462891 4.609375 C 24.539124 4.6162572 24.598509 4.5702152 24.640625 4.5175781 C 24.682741 4.464941 24.719518 4.3964617 24.755859 4.3066406 C 25.046583 3.5880721 25.05638 2.2399857 24.796875 1.2441406 C 24.731999 0.99517935 24.679668 0.84317694 24.589844 0.75 C 24.567388 0.72670577 24.538965 0.70561652 24.501953 0.6953125 z M 0.4609375 0.92773438 C 0.49046723 0.9707977 0.54759295 1.0803198 0.60351562 1.2949219 C 0.85109741 2.2450118 0.82743028 3.5969257 0.5703125 4.2324219 C 0.53817278 4.3118589 0.50595487 4.3656071 0.484375 4.3925781 C 0.46279513 4.4195491 0.4618855 4.4084786 0.48046875 4.4101562 C 0.499052 4.4118339 0.4937992 4.419789 0.4765625 4.390625 C 0.4593258 4.361461 0.43747536 4.3072781 0.41796875 4.2324219 C 0.33994231 3.932997 0.29064561 3.3225647 0.30078125 2.5019531 C 0.3109169 1.6813416 0.38038998 1.1221003 0.45507812 0.9375 C 0.45865104 0.92866912 0.45739301 0.93437051 0.4609375 0.92773438 z M 8.4609375 0.92773438 C 8.4904672 0.9707977 8.5475929 1.0803198 8.6035156 1.2949219 C 8.8510974 2.2450118 8.8274303 3.5969257 8.5703125 4.2324219 C 8.5381728 4.3118589 8.5059549 4.3656071 8.484375 4.3925781 C 8.4627951 4.4195491 8.4618855 4.4084786 8.4804688 4.4101562 C 8.499052 4.4118339 8.4937992 4.419789 8.4765625 4.390625 C 8.4593258 4.361461 8.4374754 4.3072781 8.4179688 4.2324219 C 8.3399423 3.932997 8.2906456 3.3225647 8.3007812 2.5019531 C 8.310917 1.6813415 8.38039 1.1221004 8.4550781 0.9375 C 8.458651 0.92866912 8.457393 0.93437051 8.4609375 0.92773438 z M 16.460938 0.92773438 C 16.490467 0.97079772 16.547593 1.0803198 16.603516 1.2949219 C 16.851097 2.2450118 16.827427 3.5969254 16.570312 4.2324219 C 16.538172 4.3118589 16.505955 4.3656071 16.484375 4.3925781 C 16.462795 4.4195492 16.461886 4.4084787 16.480469 4.4101562 C 16.499051 4.4118338 16.493799 4.4197889 16.476562 4.390625 C 16.459326 4.3614611 16.437475 4.307278 16.417969 4.2324219 C 16.339942 3.9329972 16.290645 3.3225647 16.300781 2.5019531 C 16.310917 1.6813415 16.38039 1.1221004 16.455078 0.9375 C 16.458651 0.92866912 16.457393 0.93437051 16.460938 0.92773438 z M 24.460938 0.92773438 C 24.490467 0.97079772 24.547593 1.0803198 24.603516 1.2949219 C 24.851097 2.2450118 24.827427 3.5969254 24.570312 4.2324219 C 24.538172 4.3118589 24.505955 4.3656071 24.484375 4.3925781 C 24.462795 4.4195492 24.461886 4.4084787 24.480469 4.4101562 C 24.499051 4.4118338 24.493799 4.4197889 24.476562 4.390625 C 24.459326 4.3614611 24.437475 4.307278 24.417969 4.2324219 C 24.339942 3.9329972 24.290645 3.3225647 24.300781 2.5019531 C 24.310917 1.6813415 24.38039 1.1221004 24.455078 0.9375 C 24.458651 0.92866912 24.457393 0.93437051 24.460938 0.92773438 z M 4.4453125 5.7480469 C 4.4053219 5.7618267 4.3789974 5.7878625 4.359375 5.8144531 C 4.3201302 5.8676343 4.2976771 5.9322964 4.2753906 6.0175781 C 4.1862448 6.358705 4.1386719 7.0339364 4.1386719 8 C 4.1386719 8.9660636 4.1862448 9.641295 4.2753906 9.9824219 C 4.2976771 10.067704 4.3201302 10.132366 4.359375 10.185547 C 4.3789974 10.212137 4.4053219 10.238173 4.4453125 10.251953 C 4.4853031 10.265733 4.5354868 10.259144 4.5683594 10.240234 C 4.6341046 10.202415 4.6620286 10.145199 4.6953125 10.070312 C 4.7285964 9.9954258 4.7606844 9.8989305 4.7929688 9.7753906 C 5.0512435 8.7870717 5.0512435 7.2129283 4.7929688 6.2246094 C 4.7606844 6.1010695 4.7285964 6.0045742 4.6953125 5.9296875 C 4.6620286 5.8548008 4.6341046 5.7975851 4.5683594 5.7597656 C 4.5354868 5.7408559 4.4853031 5.734267 4.4453125 5.7480469 z M 12.445312 5.7480469 C 12.405322 5.7618267 12.378997 5.7878625 12.359375 5.8144531 C 12.32013 5.8676343 12.297677 5.9322964 12.275391 6.0175781 C 12.186245 6.358705 12.138672 7.0339365 12.138672 8 C 12.138672 8.9660635 12.186245 9.641295 12.275391 9.9824219 C 12.297677 10.067704 12.32013 10.132366 12.359375 10.185547 C 12.378997 10.212137 12.405322 10.238173 12.445312 10.251953 C 12.485303 10.265733 12.535487 10.259144 12.568359 10.240234 C 12.634105 10.202415 12.662029 10.145199 12.695312 10.070312 C 12.728596 9.9954258 12.760684 9.8989305 12.792969 9.7753906 C 13.051243 8.7870717 13.051243 7.2129283 12.792969 6.2246094 C 12.760684 6.1010695 12.728596 6.0045742 12.695312 5.9296875 C 12.662029 5.8548008 12.634105 5.7975851 12.568359 5.7597656 C 12.535487 5.7408559 12.485303 5.7342671 12.445312 5.7480469 z M 20.445312 5.7480469 C 20.405322 5.7618267 20.378997 5.7878625 20.359375 5.8144531 C 20.32013 5.8676343 20.297677 5.9322964 20.275391 6.0175781 C 20.186245 6.358705 20.138672 7.0339365 20.138672 8 C 20.138672 8.9660635 20.186245 9.641295 20.275391 9.9824219 C 20.297677 10.067704 20.32013 10.132366 20.359375 10.185547 C 20.378997 10.212137 20.405322 10.238173 20.445312 10.251953 C 20.485303 10.265733 20.535487 10.259144 20.568359 10.240234 C 20.634105 10.202415 20.662029 10.145199 20.695312 10.070312 C 20.728596 9.9954258 20.760684 9.8989305 20.792969 9.7753906 C 21.051243 8.7870717 21.051243 7.2129283 20.792969 6.2246094 C 20.760684 6.1010695 20.728596 6.0045742 20.695312 5.9296875 C 20.662029 5.8548008 20.634105 5.7975851 20.568359 5.7597656 C 20.535487 5.7408559 20.485303 5.7342671 20.445312 5.7480469 z M 28.445312 5.7480469 C 28.405322 5.7618267 28.378997 5.7878625 28.359375 5.8144531 C 28.32013 5.8676343 28.297677 5.9322964 28.275391 6.0175781 C 28.186245 6.358705 28.138672 7.0339365 28.138672 8 C 28.138672 8.9660635 28.186245 9.641295 28.275391 9.9824219 C 28.297677 10.067704 28.32013 10.132366 28.359375 10.185547 C 28.378997 10.212137 28.405322 10.238173 28.445312 10.251953 C 28.485303 10.265733 28.535487 10.259144 28.568359 10.240234 C 28.634105 10.202415 28.662029 10.145199 28.695312 10.070312 C 28.728596 9.9954258 28.760684 9.8989305 28.792969 9.7753906 C 29.051243 8.7870717 29.051243 7.2129283 28.792969 6.2246094 C 28.760684 6.1010695 28.728596 6.0045742 28.695312 5.9296875 C 28.662029 5.8548008 28.634105 5.7975851 28.568359 5.7597656 C 28.535487 5.7408559 28.485303 5.7342671 28.445312 5.7480469 z M 4.5 5.9882812 C 4.5068346 5.999462 4.5044119 5.9933257 4.5117188 6.0097656 C 4.5378332 6.0685215 4.5690118 6.1583055 4.5996094 6.2753906 C 4.8443898 7.2120717 4.8443898 8.7879283 4.5996094 9.7246094 C 4.5690118 9.8416945 4.5378332 9.9314785 4.5117188 9.9902344 C 4.5044119 10.006674 4.5068346 10.000538 4.5 10.011719 C 4.4896687 9.9878971 4.4799884 9.9746458 4.46875 9.9316406 C 4.3921163 9.6383925 4.3378906 8.9589364 4.3378906 8 C 4.3378906 7.0410636 4.3921163 6.3616075 4.46875 6.0683594 C 4.4799884 6.0253542 4.4896687 6.0121029 4.5 5.9882812 z M 12.5 5.9882812 C 12.506835 5.999462 12.504412 5.9933257 12.511719 6.0097656 C 12.537833 6.0685215 12.569012 6.1583055 12.599609 6.2753906 C 12.844389 7.2120717 12.844389 8.7879283 12.599609 9.7246094 C 12.569012 9.8416945 12.537833 9.9314785 12.511719 9.9902344 C 12.504412 10.006674 12.506835 10.000538 12.5 10.011719 C 12.489669 9.9878971 12.479988 9.9746458 12.46875 9.9316406 C 12.392116 9.6383925 12.337891 8.9589365 12.337891 8 C 12.337891 7.0410635 12.392116 6.3616075 12.46875 6.0683594 C 12.479988 6.0253542 12.489669 6.0121029 12.5 5.9882812 z M 20.5 5.9882812 C 20.506835 5.999462 20.504412 5.9933257 20.511719 6.0097656 C 20.537833 6.0685215 20.569012 6.1583055 20.599609 6.2753906 C 20.844389 7.2120717 20.844389 8.7879283 20.599609 9.7246094 C 20.569012 9.8416945 20.537833 9.9314785 20.511719 9.9902344 C 20.504412 10.006674 20.506835 10.000538 20.5 10.011719 C 20.489669 9.9878971 20.479988 9.9746458 20.46875 9.9316406 C 20.392116 9.6383925 20.337891 8.9589365 20.337891 8 C 20.337891 7.0410635 20.392116 6.3616075 20.46875 6.0683594 C 20.479988 6.0253542 20.489669 6.0121029 20.5 5.9882812 z M 28.5 5.9882812 C 28.506835 5.999462 28.504412 5.9933257 28.511719 6.0097656 C 28.537833 6.0685215 28.569012 6.1583055 28.599609 6.2753906 C 28.844389 7.2120717 28.844389 8.7879283 28.599609 9.7246094 C 28.569012 9.8416945 28.537833 9.9314785 28.511719 9.9902344 C 28.504412 10.006674 28.506835 10.000538 28.5 10.011719 C 28.489669 9.9878971 28.479988 9.9746458 28.46875 9.9316406 C 28.392116 9.6383925 28.337891 8.9589365 28.337891 8 C 28.337891 7.0410635 28.392116 6.3616075 28.46875 6.0683594 C 28.479988 6.0253542 28.489669 6.0121029 28.5 5.9882812 z M 0.50195312 11.695312 C 0.46494141 11.685008 0.42105033 11.689568 0.38867188 11.707031 C 0.32391497 11.741957 0.29599427 11.797875 0.26953125 11.863281 C 0.16367918 12.124907 0.11180655 12.668658 0.1015625 13.498047 C 0.091318452 14.327435 0.13552767 14.941354 0.22460938 15.283203 C 0.2468798 15.368665 0.27158046 15.436171 0.3046875 15.492188 C 0.33779454 15.548204 0.38665746 15.602493 0.46289062 15.609375 C 0.53912379 15.616257 0.59850925 15.570215 0.640625 15.517578 C 0.68274075 15.464941 0.71951832 15.396462 0.75585938 15.306641 C 1.0465878 14.588071 1.05638 13.239985 0.796875 12.244141 C 0.73199874 11.995179 0.67966832 11.843177 0.58984375 11.75 C 0.56738761 11.726706 0.53896484 11.705617 0.50195312 11.695312 z M 8.5019531 11.695312 C 8.4649414 11.685008 8.4210503 11.689568 8.3886719 11.707031 C 8.323915 11.741957 8.2959943 11.797875 8.2695312 11.863281 C 8.1636792 12.124907 8.1118067 12.668658 8.1015625 13.498047 C 8.0913184 14.327435 8.1355277 14.941354 8.2246094 15.283203 C 8.2468798 15.368665 8.2715805 15.436171 8.3046875 15.492188 C 8.3377945 15.548204 8.3866575 15.602493 8.4628906 15.609375 C 8.5391238 15.616257 8.5985092 15.570215 8.640625 15.517578 C 8.6827408 15.464941 8.7195183 15.396462 8.7558594 15.306641 C 9.0465878 14.588071 9.05638 13.239985 8.796875 12.244141 C 8.7319987 11.995179 8.6796683 11.843177 8.5898438 11.75 C 8.5673876 11.726706 8.5389648 11.705617 8.5019531 11.695312 z M 16.501953 11.695312 C 16.464941 11.685008 16.42105 11.689568 16.388672 11.707031 C 16.323915 11.741957 16.295994 11.797875 16.269531 11.863281 C 16.163679 12.124907 16.111807 12.668658 16.101562 13.498047 C 16.091318 14.327435 16.135527 14.941354 16.224609 15.283203 C 16.24688 15.368665 16.27158 15.436171 16.304688 15.492188 C 16.337795 15.548204 16.386658 15.602493 16.462891 15.609375 C 16.539124 15.616257 16.598509 15.570215 16.640625 15.517578 C 16.682741 15.464941 16.719518 15.396462 16.755859 15.306641 C 17.046583 14.588072 17.05638 13.239985 16.796875 12.244141 C 16.731999 11.995179 16.679668 11.843177 16.589844 11.75 C 16.567388 11.726706 16.538965 11.705617 16.501953 11.695312 z M 24.501953 11.695312 C 24.464941 11.685008 24.42105 11.689568 24.388672 11.707031 C 24.323915 11.741957 24.295994 11.797875 24.269531 11.863281 C 24.163679 12.124907 24.111807 12.668658 24.101562 13.498047 C 24.091318 14.327435 24.135527 14.941354 24.224609 15.283203 C 24.24688 15.368665 24.27158 15.436171 24.304688 15.492188 C 24.337795 15.548204 24.386658 15.602493 24.462891 15.609375 C 24.539124 15.616257 24.598509 15.570215 24.640625 15.517578 C 24.682741 15.464941 24.719518 15.396462 24.755859 15.306641 C 25.046583 14.588072 25.05638 13.239985 24.796875 12.244141 C 24.731999 11.995179 24.679668 11.843177 24.589844 11.75 C 24.567388 11.726706 24.538965 11.705617 24.501953 11.695312 z M 0.4609375 11.927734 C 0.49046724 11.970798 0.54759295 12.08032 0.60351562 12.294922 C 0.85109741 13.245011 0.82743031 14.596925 0.5703125 15.232422 C 0.53817279 15.311859 0.50595486 15.365607 0.484375 15.392578 C 0.46279514 15.419549 0.46188552 15.408479 0.48046875 15.410156 C 0.49905198 15.411834 0.4937992 15.419789 0.4765625 15.390625 C 0.4593258 15.361461 0.43747536 15.307278 0.41796875 15.232422 C 0.33994231 14.932997 0.29064561 14.322565 0.30078125 13.501953 C 0.3109169 12.681342 0.38038998 12.1221 0.45507812 11.9375 C 0.45865104 11.928669 0.45739301 11.934371 0.4609375 11.927734 z M 8.4609375 11.927734 C 8.4904672 11.970798 8.5475929 12.08032 8.6035156 12.294922 C 8.8510974 13.245011 8.8274303 14.596925 8.5703125 15.232422 C 8.5381728 15.311859 8.5059549 15.365607 8.484375 15.392578 C 8.4627951 15.419549 8.4618855 15.408479 8.4804688 15.410156 C 8.499052 15.411834 8.4937992 15.419789 8.4765625 15.390625 C 8.4593258 15.361461 8.4374754 15.307278 8.4179688 15.232422 C 8.3399423 14.932997 8.2906456 14.322565 8.3007812 13.501953 C 8.310917 12.681342 8.38039 12.1221 8.4550781 11.9375 C 8.458651 11.928669 8.457393 11.934371 8.4609375 11.927734 z M 16.460938 11.927734 C 16.490467 11.970798 16.547593 12.08032 16.603516 12.294922 C 16.851097 13.245011 16.827427 14.596925 16.570312 15.232422 C 16.538172 15.311859 16.505955 15.365607 16.484375 15.392578 C 16.462795 15.419549 16.461886 15.408479 16.480469 15.410156 C 16.499051 15.411834 16.493799 15.419789 16.476562 15.390625 C 16.459326 15.361461 16.437475 15.307278 16.417969 15.232422 C 16.339942 14.932997 16.290645 14.322565 16.300781 13.501953 C 16.310917 12.681342 16.38039 12.1221 16.455078 11.9375 C 16.458651 11.928669 16.457393 11.934371 16.460938 11.927734 z M 24.460938 11.927734 C 24.490467 11.970798 24.547593 12.08032 24.603516 12.294922 C 24.851097 13.245011 24.827427 14.596925 24.570312 15.232422 C 24.538172 15.311859 24.505955 15.365607 24.484375 15.392578 C 24.462795 15.419549 24.461886 15.408479 24.480469 15.410156 C 24.499051 15.411834 24.493799 15.419789 24.476562 15.390625 C 24.459326 15.361461 24.437475 15.307278 24.417969 15.232422 C 24.339942 14.932997 24.290645 14.322565 24.300781 13.501953 C 24.310917 12.681342 24.38039 12.1221 24.455078 11.9375 C 24.458651 11.928669 24.457393 11.934371 24.460938 11.927734 z M 4.5019531 16.695312 C 4.4649414 16.685008 4.4210503 16.689568 4.3886719 16.707031 C 4.323915 16.741957 4.2959943 16.797875 4.2695312 16.863281 C 4.1636792 17.124907 4.1118067 17.668658 4.1015625 18.498047 C 4.0913184 19.327435 4.1355277 19.941354 4.2246094 20.283203 C 4.2468798 20.368665 4.2715805 20.436171 4.3046875 20.492188 C 4.3377945 20.548204 4.3866575 20.602493 4.4628906 20.609375 C 4.5391238 20.616257 4.5985092 20.570215 4.640625 20.517578 C 4.6827408 20.464941 4.7195183 20.396462 4.7558594 20.306641 C 5.0465878 19.588071 5.05638 18.239985 4.796875 17.244141 C 4.7319987 16.995179 4.6796683 16.843177 4.5898438 16.75 C 4.5673876 16.726706 4.5389648 16.705617 4.5019531 16.695312 z M 12.501953 16.695312 C 12.464941 16.685008 12.42105 16.689568 12.388672 16.707031 C 12.323915 16.741957 12.295994 16.797875 12.269531 16.863281 C 12.163679 17.124907 12.111807 17.668658 12.101562 18.498047 C 12.091318 19.327435 12.135527 19.941354 12.224609 20.283203 C 12.24688 20.368665 12.27158 20.436171 12.304688 20.492188 C 12.337795 20.548204 12.386658 20.602493 12.462891 20.609375 C 12.539124 20.616257 12.598509 20.570215 12.640625 20.517578 C 12.682741 20.464941 12.719518 20.396462 12.755859 20.306641 C 13.046583 19.588072 13.05638 18.239985 12.796875 17.244141 C 12.731999 16.995179 12.679668 16.843177 12.589844 16.75 C 12.567388 16.726706 12.538965 16.705617 12.501953 16.695312 z M 20.501953 16.695312 C 20.464941 16.685008 20.42105 16.689568 20.388672 16.707031 C 20.323915 16.741957 20.295994 16.797875 20.269531 16.863281 C 20.163679 17.124907 20.111807 17.668658 20.101562 18.498047 C 20.091318 19.327435 20.135527 19.941354 20.224609 20.283203 C 20.24688 20.368665 20.27158 20.436171 20.304688 20.492188 C 20.337795 20.548204 20.386658 20.602493 20.462891 20.609375 C 20.539124 20.616257 20.598509 20.570215 20.640625 20.517578 C 20.682741 20.464941 20.719518 20.396462 20.755859 20.306641 C 21.046583 19.588072 21.05638 18.239985 20.796875 17.244141 C 20.731999 16.995179 20.679668 16.843177 20.589844 16.75 C 20.567388 16.726706 20.538965 16.705617 20.501953 16.695312 z M 28.501953 16.695312 C 28.464941 16.685008 28.42105 16.689568 28.388672 16.707031 C 28.323915 16.741957 28.295994 16.797875 28.269531 16.863281 C 28.163679 17.124907 28.111807 17.668658 28.101562 18.498047 C 28.091318 19.327435 28.135527 19.941354 28.224609 20.283203 C 28.24688 20.368665 28.27158 20.436171 28.304688 20.492188 C 28.337795 20.548204 28.386658 20.602493 28.462891 20.609375 C 28.539124 20.616257 28.598509 20.570215 28.640625 20.517578 C 28.682741 20.464941 28.719518 20.396462 28.755859 20.306641 C 29.046583 19.588072 29.05638 18.239985 28.796875 17.244141 C 28.731999 16.995179 28.679668 16.843177 28.589844 16.75 C 28.567388 16.726706 28.538965 16.705617 28.501953 16.695312 z M 4.4609375 16.927734 C 4.4904672 16.970798 4.5475929 17.08032 4.6035156 17.294922 C 4.8510974 18.245011 4.8274303 19.596925 4.5703125 20.232422 C 4.5381728 20.311859 4.5059549 20.365607 4.484375 20.392578 C 4.4627951 20.419549 4.4618855 20.408479 4.4804688 20.410156 C 4.499052 20.411834 4.4937992 20.419789 4.4765625 20.390625 C 4.4593258 20.361461 4.4374754 20.307278 4.4179688 20.232422 C 4.3399423 19.932997 4.2906456 19.322565 4.3007812 18.501953 C 4.310917 17.681342 4.38039 17.1221 4.4550781 16.9375 C 4.458651 16.928669 4.457393 16.934371 4.4609375 16.927734 z M 12.460938 16.927734 C 12.490467 16.970798 12.547593 17.08032 12.603516 17.294922 C 12.851097 18.245011 12.827427 19.596925 12.570312 20.232422 C 12.538172 20.311859 12.505955 20.365607 12.484375 20.392578 C 12.462795 20.419549 12.461886 20.408479 12.480469 20.410156 C 12.499051 20.411834 12.493799 20.419789 12.476562 20.390625 C 12.459326 20.361461 12.437475 20.307278 12.417969 20.232422 C 12.339942 19.932997 12.290645 19.322565 12.300781 18.501953 C 12.310917 17.681342 12.38039 17.1221 12.455078 16.9375 C 12.458651 16.928669 12.457393 16.934371 12.460938 16.927734 z M 20.460938 16.927734 C 20.490467 16.970798 20.547593 17.08032 20.603516 17.294922 C 20.851097 18.245011 20.827427 19.596925 20.570312 20.232422 C 20.538172 20.311859 20.505955 20.365607 20.484375 20.392578 C 20.462795 20.419549 20.461886 20.408479 20.480469 20.410156 C 20.499051 20.411834 20.493799 20.419789 20.476562 20.390625 C 20.459326 20.361461 20.437475 20.307278 20.417969 20.232422 C 20.339942 19.932997 20.290645 19.322565 20.300781 18.501953 C 20.310917 17.681342 20.38039 17.1221 20.455078 16.9375 C 20.458651 16.928669 20.457393 16.934371 20.460938 16.927734 z M 28.460938 16.927734 C 28.490467 16.970798 28.547593 17.08032 28.603516 17.294922 C 28.851097 18.245011 28.827427 19.596925 28.570312 20.232422 C 28.538172 20.311859 28.505955 20.365607 28.484375 20.392578 C 28.462795 20.419549 28.461886 20.408479 28.480469 20.410156 C 28.499051 20.411834 28.493799 20.419789 28.476562 20.390625 C 28.459326 20.361461 28.437475 20.307278 28.417969 20.232422 C 28.339942 19.932997 28.290645 19.322565 28.300781 18.501953 C 28.310917 17.681342 28.38039 17.1221 28.455078 16.9375 C 28.458651 16.928669 28.457393 16.934371 28.460938 16.927734 z M 0.4453125 21.748047 C 0.40532195 21.761827 0.3789974 21.787863 0.359375 21.814453 C 0.3201302 21.867634 0.29767707 21.932296 0.27539062 22.017578 C 0.18624485 22.358705 0.13867188 23.033936 0.13867188 24 C 0.13867187 24.966064 0.18624485 25.641295 0.27539062 25.982422 C 0.29767707 26.067704 0.3201302 26.132366 0.359375 26.185547 C 0.3789974 26.212137 0.40532195 26.238173 0.4453125 26.251953 C 0.48530305 26.265733 0.53548678 26.259144 0.56835938 26.240234 C 0.63410457 26.202415 0.66202858 26.145199 0.6953125 26.070312 C 0.72859642 25.995426 0.76068441 25.89893 0.79296875 25.775391 C 1.0512435 24.787072 1.0512435 23.212928 0.79296875 22.224609 C 0.76068441 22.10107 0.72859642 22.004574 0.6953125 21.929688 C 0.66202858 21.854801 0.63410457 21.797585 0.56835938 21.759766 C 0.53548678 21.740856 0.48530305 21.734267 0.4453125 21.748047 z M 8.4453125 21.748047 C 8.4053219 21.761827 8.3789974 21.787863 8.359375 21.814453 C 8.3201302 21.867634 8.2976771 21.932296 8.2753906 22.017578 C 8.1862448 22.358705 8.1386719 23.033936 8.1386719 24 C 8.1386719 24.966064 8.1862448 25.641295 8.2753906 25.982422 C 8.2976771 26.067704 8.3201302 26.132366 8.359375 26.185547 C 8.3789974 26.212137 8.4053219 26.238173 8.4453125 26.251953 C 8.4853031 26.265733 8.5354868 26.259144 8.5683594 26.240234 C 8.6341046 26.202415 8.6620286 26.145199 8.6953125 26.070312 C 8.7285964 25.995426 8.7606844 25.89893 8.7929688 25.775391 C 9.0512435 24.787072 9.0512435 23.212928 8.7929688 22.224609 C 8.7606844 22.10107 8.7285964 22.004574 8.6953125 21.929688 C 8.6620286 21.854801 8.6341046 21.797585 8.5683594 21.759766 C 8.5354868 21.740856 8.4853031 21.734267 8.4453125 21.748047 z M 16.445312 21.748047 C 16.405322 21.761827 16.378997 21.787863 16.359375 21.814453 C 16.32013 21.867634 16.297677 21.932296 16.275391 22.017578 C 16.186245 22.358705 16.138672 23.033936 16.138672 24 C 16.138672 24.966064 16.186245 25.641295 16.275391 25.982422 C 16.297677 26.067704 16.32013 26.132366 16.359375 26.185547 C 16.378997 26.212137 16.405322 26.238173 16.445312 26.251953 C 16.485303 26.265733 16.535487 26.259144 16.568359 26.240234 C 16.634105 26.202415 16.662029 26.145199 16.695312 26.070312 C 16.728596 25.995426 16.760684 25.89893 16.792969 25.775391 C 17.051243 24.787072 17.051243 23.212928 16.792969 22.224609 C 16.760684 22.10107 16.728596 22.004574 16.695312 21.929688 C 16.662029 21.854801 16.634105 21.797585 16.568359 21.759766 C 16.535487 21.740856 16.485303 21.734267 16.445312 21.748047 z M 24.445312 21.748047 C 24.405322 21.761827 24.378997 21.787863 24.359375 21.814453 C 24.32013 21.867634 24.297677 21.932296 24.275391 22.017578 C 24.186245 22.358705 24.138672 23.033936 24.138672 24 C 24.138672 24.966064 24.186245 25.641295 24.275391 25.982422 C 24.297677 26.067704 24.32013 26.132366 24.359375 26.185547 C 24.378997 26.212137 24.405322 26.238173 24.445312 26.251953 C 24.485303 26.265733 24.535487 26.259144 24.568359 26.240234 C 24.634105 26.202415 24.662029 26.145199 24.695312 26.070312 C 24.728596 25.995426 24.760684 25.89893 24.792969 25.775391 C 25.051243 24.787072 25.051243 23.212928 24.792969 22.224609 C 24.760684 22.10107 24.728596 22.004574 24.695312 21.929688 C 24.662029 21.854801 24.634105 21.797585 24.568359 21.759766 C 24.535487 21.740856 24.485303 21.734267 24.445312 21.748047 z M 0.5 21.988281 C 0.5068346 21.999462 0.50441191 21.993326 0.51171875 22.009766 C 0.5378332 22.068521 0.56901183 22.158305 0.59960938 22.275391 C 0.84438973 23.212072 0.84438973 24.787928 0.59960938 25.724609 C 0.56901183 25.841695 0.5378332 25.931479 0.51171875 25.990234 C 0.50441191 26.006674 0.5068346 26.000538 0.5 26.011719 C 0.4896687 25.987897 0.47998844 25.974646 0.46875 25.931641 C 0.39211626 25.638393 0.33789063 24.958936 0.33789062 24 C 0.33789062 23.041064 0.39211626 22.361607 0.46875 22.068359 C 0.47998844 22.025354 0.4896687 22.012103 0.5 21.988281 z M 8.5 21.988281 C 8.5068346 21.999462 8.5044119 21.993326 8.5117188 22.009766 C 8.5378332 22.068521 8.5690118 22.158305 8.5996094 22.275391 C 8.8443898 23.212072 8.8443898 24.787928 8.5996094 25.724609 C 8.5690118 25.841695 8.5378332 25.931479 8.5117188 25.990234 C 8.5044119 26.006674 8.5068346 26.000538 8.5 26.011719 C 8.4896687 25.987897 8.4799884 25.974646 8.46875 25.931641 C 8.3921163 25.638393 8.3378906 24.958936 8.3378906 24 C 8.3378906 23.041064 8.3921163 22.361607 8.46875 22.068359 C 8.4799884 22.025354 8.4896687 22.012103 8.5 21.988281 z M 16.5 21.988281 C 16.506835 21.999462 16.504412 21.993326 16.511719 22.009766 C 16.537833 22.068521 16.569012 22.158305 16.599609 22.275391 C 16.844389 23.212072 16.844389 24.787928 16.599609 25.724609 C 16.569012 25.841695 16.537833 25.931479 16.511719 25.990234 C 16.504412 26.006674 16.506835 26.000538 16.5 26.011719 C 16.489669 25.987897 16.479988 25.974646 16.46875 25.931641 C 16.392116 25.638393 16.337891 24.958936 16.337891 24 C 16.337891 23.041064 16.392116 22.361607 16.46875 22.068359 C 16.479988 22.025354 16.489669 22.012103 16.5 21.988281 z M 24.5 21.988281 C 24.506835 21.999462 24.504412 21.993326 24.511719 22.009766 C 24.537833 22.068521 24.569012 22.158305 24.599609 22.275391 C 24.844389 23.212072 24.844389 24.787928 24.599609 25.724609 C 24.569012 25.841695 24.537833 25.931479 24.511719 25.990234 C 24.504412 26.006674 24.506835 26.000538 24.5 26.011719 C 24.489669 25.987897 24.479988 25.974646 24.46875 25.931641 C 24.392116 25.638393 24.337891 24.958936 24.337891 24 C 24.337891 23.041064 24.392116 22.361607 24.46875 22.068359 C 24.479988 22.025354 24.489669 22.012103 24.5 21.988281 z M 4.5019531 27.695312 C 4.4649414 27.685008 4.4210503 27.689568 4.3886719 27.707031 C 4.323915 27.741957 4.2959943 27.797875 4.2695312 27.863281 C 4.1636792 28.124907 4.1118067 28.668658 4.1015625 29.498047 C 4.0913184 30.327435 4.1355277 30.941354 4.2246094 31.283203 C 4.2468798 31.368665 4.2715805 31.436171 4.3046875 31.492188 C 4.3377945 31.548204 4.3866575 31.602493 4.4628906 31.609375 C 4.5391238 31.616257 4.5985092 31.570215 4.640625 31.517578 C 4.6827408 31.464941 4.7195183 31.396462 4.7558594 31.306641 C 5.0465878 30.588071 5.05638 29.239985 4.796875 28.244141 C 4.7319987 27.995179 4.6796683 27.843177 4.5898438 27.75 C 4.5673876 27.726706 4.5389648 27.705617 4.5019531 27.695312 z M 12.501953 27.695312 C 12.464941 27.685008 12.42105 27.689568 12.388672 27.707031 C 12.323915 27.741957 12.295994 27.797875 12.269531 27.863281 C 12.163679 28.124907 12.111807 28.668658 12.101562 29.498047 C 12.091318 30.327435 12.135527 30.941354 12.224609 31.283203 C 12.24688 31.368665 12.27158 31.436171 12.304688 31.492188 C 12.337795 31.548204 12.386658 31.602493 12.462891 31.609375 C 12.539124 31.616257 12.598509 31.570215 12.640625 31.517578 C 12.682741 31.464941 12.719518 31.396462 12.755859 31.306641 C 13.046583 30.588072 13.05638 29.239985 12.796875 28.244141 C 12.731999 27.995179 12.679668 27.843177 12.589844 27.75 C 12.567388 27.726706 12.538965 27.705617 12.501953 27.695312 z M 20.501953 27.695312 C 20.464941 27.685008 20.42105 27.689568 20.388672 27.707031 C 20.323915 27.741957 20.295994 27.797875 20.269531 27.863281 C 20.163679 28.124907 20.111807 28.668658 20.101562 29.498047 C 20.091318 30.327435 20.135527 30.941354 20.224609 31.283203 C 20.24688 31.368665 20.27158 31.436171 20.304688 31.492188 C 20.337795 31.548204 20.386658 31.602493 20.462891 31.609375 C 20.539124 31.616257 20.598509 31.570215 20.640625 31.517578 C 20.682741 31.464941 20.719518 31.396462 20.755859 31.306641 C 21.046583 30.588072 21.05638 29.239985 20.796875 28.244141 C 20.731999 27.995179 20.679668 27.843177 20.589844 27.75 C 20.567388 27.726706 20.538965 27.705617 20.501953 27.695312 z M 28.501953 27.695312 C 28.464941 27.685008 28.42105 27.689568 28.388672 27.707031 C 28.323915 27.741957 28.295994 27.797875 28.269531 27.863281 C 28.163679 28.124907 28.111807 28.668658 28.101562 29.498047 C 28.091318 30.327435 28.135527 30.941354 28.224609 31.283203 C 28.24688 31.368665 28.27158 31.436171 28.304688 31.492188 C 28.337795 31.548204 28.386658 31.602493 28.462891 31.609375 C 28.539124 31.616257 28.598509 31.570215 28.640625 31.517578 C 28.682741 31.464941 28.719518 31.396462 28.755859 31.306641 C 29.046583 30.588072 29.05638 29.239985 28.796875 28.244141 C 28.731999 27.995179 28.679668 27.843177 28.589844 27.75 C 28.567388 27.726706 28.538965 27.705617 28.501953 27.695312 z M 4.4609375 27.927734 C 4.4904672 27.970798 4.5475929 28.08032 4.6035156 28.294922 C 4.8510974 29.245011 4.8274303 30.596925 4.5703125 31.232422 C 4.5381728 31.311859 4.5059549 31.365607 4.484375 31.392578 C 4.4627951 31.419549 4.4618855 31.408479 4.4804688 31.410156 C 4.499052 31.411834 4.4937992 31.419789 4.4765625 31.390625 C 4.4593258 31.361461 4.4374754 31.307278 4.4179688 31.232422 C 4.3399423 30.932997 4.2906456 30.322565 4.3007812 29.501953 C 4.310917 28.681342 4.38039 28.1221 4.4550781 27.9375 C 4.458651 27.928669 4.457393 27.934371 4.4609375 27.927734 z M 12.460938 27.927734 C 12.490467 27.970798 12.547593 28.08032 12.603516 28.294922 C 12.851097 29.245011 12.827427 30.596925 12.570312 31.232422 C 12.538172 31.311859 12.505955 31.365607 12.484375 31.392578 C 12.462795 31.419549 12.461886 31.408479 12.480469 31.410156 C 12.499051 31.411834 12.493799 31.419789 12.476562 31.390625 C 12.459326 31.361461 12.437475 31.307278 12.417969 31.232422 C 12.339942 30.932997 12.290645 30.322565 12.300781 29.501953 C 12.310917 28.681342 12.38039 28.1221 12.455078 27.9375 C 12.458651 27.928669 12.457393 27.934371 12.460938 27.927734 z M 20.460938 27.927734 C 20.490467 27.970798 20.547593 28.08032 20.603516 28.294922 C 20.851097 29.245011 20.827427 30.596925 20.570312 31.232422 C 20.538172 31.311859 20.505955 31.365607 20.484375 31.392578 C 20.462795 31.419549 20.461886 31.408479 20.480469 31.410156 C 20.499051 31.411834 20.493799 31.419789 20.476562 31.390625 C 20.459326 31.361461 20.437475 31.307278 20.417969 31.232422 C 20.339942 30.932997 20.290645 30.322565 20.300781 29.501953 C 20.310917 28.681342 20.38039 28.1221 20.455078 27.9375 C 20.458651 27.928669 20.457393 27.934371 20.460938 27.927734 z M 28.460938 27.927734 C 28.490467 27.970798 28.547593 28.08032 28.603516 28.294922 C 28.851097 29.245011 28.827427 30.596925 28.570312 31.232422 C 28.538172 31.311859 28.505955 31.365607 28.484375 31.392578 C 28.462795 31.419549 28.461886 31.408479 28.480469 31.410156 C 28.499051 31.411834 28.493799 31.419789 28.476562 31.390625 C 28.459326 31.361461 28.437475 31.307278 28.417969 31.232422 C 28.339942 30.932997 28.290645 30.322565 28.300781 29.501953 C 28.310917 28.681342 28.38039 28.1221 28.455078 27.9375 C 28.458651 27.928669 28.457393 27.934371 28.460938 27.927734 z "
         style="color:#000000;font-style:normal;font-variant:normal;font-weight:normal;font-stretch:normal;font-size:medium;line-height:normal;font-family:sans-serif;font-variant-ligatures:normal;font-variant-position:normal;font-variant-caps:normal;font-variant-numeric:normal;font-variant-alternates:normal;font-variant-east-asian:normal;font-feature-settings:normal;font-variation-settings:normal;text-indent:0;text-align:start;text-decoration:none;text-decoration-line:none;text-decoration-style:solid;text-decoration-color:#000000;letter-spacing:normal;word-spacing:normal;text-transform:none;writing-mode:lr-tb;direction:ltr;text-orientation:mixed;dominant-baseline:auto;baseline-shift:baseline;text-anchor:start;white-space:normal;shape-padding:0;shape-margin:0;inline-size:0;clip-rule:nonzero;display:inline;overflow:visible;visibility:visible;isolation:auto;mix-blend-mode:normal;color-interpolation:sRGB;color-interpolation-filters:linearRGB;solid-color:#000000;solid-opacity:1;vector-effect:none;fill:#aa8847;fill-opacity:1;fill-rule:nonzero;stroke:none;stroke-width:0.2;stroke-linecap:butt;stroke-linejoin:miter;stroke-miterlimit:4;stroke-dasharray:none;stroke-dashoffset:0;stroke-opacity:1;color-rendering:auto;image-rendering:auto;shape-rendering:auto;text-rendering:auto;enable-background:accumulate;stop-color:#000000;stop-opacity:1" />
    </g>
  </g>
  <path
     inkscape:connector-curvature="0"
     id="path4520"
     d=""
     style="fill:#000000" />
</svg>
