<?xml version="1.0" encoding="UTF-8" standalone="no"?>
<svg
   xmlns:dc="http://purl.org/dc/elements/1.1/"
   xmlns:cc="http://creativecommons.org/ns#"
   xmlns:rdf="http://www.w3.org/1999/02/22-rdf-syntax-ns#"
   xmlns:svg="http://www.w3.org/2000/svg"
   xmlns="http://www.w3.org/2000/svg"
   xmlns:sodipodi="http://sodipodi.sourceforge.net/DTD/sodipodi-0.dtd"
   xmlns:inkscape="http://www.inkscape.org/namespaces/inkscape"
   inkscape:version="1.0 (4035a4fb49, 2020-05-01)"
   sodipodi:docname="vineyard32.svg"
   viewBox="0 0 32 32"
   height="32"
   width="32"
   id="svg2"
   version="1.1">
  <metadata
     id="metadata8">
    <rdf:RDF>
      <cc:Work
         rdf:about="">
        <dc:format>image/svg+xml</dc:format>
        <dc:type
           rdf:resource="http://purl.org/dc/dcmitype/StillImage" />
        <dc:title></dc:title>
      </cc:Work>
    </rdf:RDF>
  </metadata>
  <defs
     id="defs6" />
  <sodipodi:namedview
     inkscape:document-rotation="0"
     fit-margin-bottom="0"
     fit-margin-right="0"
     fit-margin-left="0"
     fit-margin-top="0"
     inkscape:current-layer="svg2"
     inkscape:window-maximized="0"
     inkscape:window-y="0"
     inkscape:window-x="0"
     inkscape:cy="5.8825755"
     inkscape:cx="-0.32340361"
     inkscape:zoom="3.9441055"
     showgrid="false"
     id="namedview4"
     inkscape:window-height="1008"
     inkscape:window-width="1501"
     inkscape:pageshadow="2"
     inkscape:pageopacity="0"
     guidetolerance="10"
     gridtolerance="10"
     objecttolerance="10"
     borderopacity="1"
     bordercolor="#666666"
     pagecolor="#ffffff" />
  <g
     style="stroke-width:1"
     id="g821">
    <rect
       style="color:#000000;clip-rule:nonzero;display:inline;overflow:visible;visibility:visible;opacity:1;isolation:auto;mix-blend-mode:normal;color-interpolation:sRGB;color-interpolation-filters:linearRGB;solid-color:#000000;solid-opacity:1;vector-effect:none;fill:#dcfebb;fill-opacity:1;fill-rule:evenodd;stroke:none;stroke-width:0.4;stroke-linecap:butt;stroke-linejoin:miter;stroke-miterlimit:4;stroke-dasharray:none;stroke-dashoffset:0;stroke-opacity:1;marker:none;color-rendering:auto;image-rendering:auto;shape-rendering:auto;text-rendering:auto;enable-background:accumulate"
       id="rect4547"
       width="32"
       height="32"
       x="0"
       y="0" />
    <g
       style="opacity:1;fill:#aa8847;fill-opacity:1;stroke:none;stroke-width:1"
       id="g2540">
      <path
         id="path2542"
         d="m 4.2014981,29.5 c 0.02038,-1.65 0.2444986,-2.203936 0.498042,-1.230968 0.2535434,0.972967 0.2368691,2.322967 -0.037054,3 C 4.388563,31.946064 4.1811184,31.15 4.2014981,29.5 Z m 7.9999999,0 c 0.02038,-1.65 0.244498,-2.203936 0.498042,-1.230968 0.253543,0.972967 0.236869,2.322967 -0.03705,3 C 12.388563,31.946064 12.181118,31.15 12.201498,29.5 Z m 8,0 c 0.02038,-1.65 0.244498,-2.203936 0.498042,-1.230968 0.253543,0.972967 0.236869,2.322967 -0.03705,3 C 20.388563,31.946064 20.181118,31.15 20.201498,29.5 Z m 8,0 c 0.02038,-1.65 0.244498,-2.203936 0.498042,-1.230968 0.253543,0.972967 0.236869,2.322967 -0.03705,3 C 28.388563,31.946064 28.181118,31.15 28.201498,29.5 Z M 0.2385521,24 c 0,-1.925 0.20579527,-2.7125 0.45732281,-1.75 0.25152755,0.9625 0.25152755,2.5375 0,3.5 C 0.44434737,26.7125 0.2385521,25.925 0.2385521,24 Z m 8,0 c 0,-1.925 0.2057953,-2.7125 0.4573228,-1.75 0.2515276,0.9625 0.2515276,2.5375 0,3.5 C 8.4443474,26.7125 8.2385521,25.925 8.2385521,24 Z m 7.9999999,0 c 0,-1.925 0.205795,-2.7125 0.457323,-1.75 0.251527,0.9625 0.251527,2.5375 0,3.5 -0.251528,0.9625 -0.457323,0.175 -0.457323,-1.75 z m 8,0 c 0,-1.925 0.205795,-2.7125 0.457323,-1.75 0.251527,0.9625 0.251527,2.5375 0,3.5 -0.251528,0.9625 -0.457323,0.175 -0.457323,-1.75 z M 4.2014981,18.5 c 0.02038,-1.65 0.2444986,-2.203936 0.498042,-1.230968 0.2535434,0.972967 0.2368691,2.322967 -0.037054,3 C 4.388563,20.946064 4.1811184,20.15 4.2014981,18.5 Z m 7.9999999,0 c 0.02038,-1.65 0.244498,-2.203936 0.498042,-1.230968 0.253543,0.972967 0.236869,2.322967 -0.03705,3 C 12.388563,20.946064 12.181118,20.15 12.201498,18.5 Z m 8,0 c 0.02038,-1.65 0.244498,-2.203936 0.498042,-1.230968 0.253543,0.972967 0.236869,2.322967 -0.03705,3 C 20.388563,20.946064 20.181118,20.15 20.201498,18.5 Z m 8,0 c 0.02038,-1.65 0.244498,-2.203936 0.498042,-1.230968 0.253543,0.972967 0.236869,2.322967 -0.03705,3 C 28.388563,20.946064 28.181118,20.15 28.201498,18.5 Z m -27.99999988,-5 c 0.0203797,-1.65 0.24449859,-2.203936 0.498042,-1.230968 0.25354341,0.972967 0.23686912,2.322967 -0.037054,3 C 0.38856304,15.946064 0.18111843,15.15 0.20149812,13.5 Z m 7.99999998,0 c 0.02038,-1.65 0.2444986,-2.203936 0.498042,-1.230968 0.2535434,0.972967 0.2368691,2.322967 -0.037054,3 C 8.388563,15.946064 8.1811184,15.15 8.2014981,13.5 Z m 7.9999999,0 c 0.02038,-1.65 0.244498,-2.203936 0.498042,-1.230968 0.253543,0.972967 0.236869,2.322967 -0.03705,3 C 16.388563,15.946064 16.181118,15.15 16.201498,13.5 Z m 8,0 c 0.02038,-1.65 0.244498,-2.203936 0.498042,-1.230968 0.253543,0.972967 0.236869,2.322967 -0.03705,3 C 24.388563,15.946064 24.181118,15.15 24.201498,13.5 Z M 4.2385521,8 c 0,-1.925 0.2057953,-2.7125 0.4573228,-1.75 0.2515276,0.9625 0.2515276,2.5375 0,3.5 C 4.4443474,10.7125 4.2385521,9.925 4.2385521,8 Z m 7.9999999,0 c 0,-1.925 0.205795,-2.7125 0.457323,-1.75 0.251527,0.9625 0.251527,2.5375 0,3.5 C 12.444347,10.7125 12.238552,9.925 12.238552,8 Z m 8,0 c 0,-1.925 0.205795,-2.7125 0.457323,-1.75 0.251527,0.9625 0.251527,2.5375 0,3.5 C 20.444347,10.7125 20.238552,9.925 20.238552,8 Z m 8,0 c 0,-1.925 0.205795,-2.7125 0.457323,-1.75 0.251527,0.9625 0.251527,2.5375 0,3.5 C 28.444347,10.7125 28.238552,9.925 28.238552,8 Z M 0.20149812,2.5 c 0.0203797,-1.65 0.24449859,-2.20393565 0.498042,-1.2309681 0.25354341,0.9729675 0.23686912,2.3229675 -0.037054,3 C 0.38856304,4.9460644 0.18111843,4.15 0.20149812,2.5 Z m 7.99999998,0 c 0.02038,-1.65 0.2444986,-2.20393565 0.498042,-1.2309681 0.2535434,0.9729675 0.2368691,2.3229675 -0.037054,3 C 8.388563,4.9460644 8.1811184,4.15 8.2014981,2.5 Z m 7.9999999,0 c 0.02038,-1.65 0.244498,-2.20393565 0.498042,-1.2309681 0.253543,0.9729675 0.236869,2.3229675 -0.03705,3 C 16.388563,4.9460644 16.181118,4.15 16.201498,2.5 Z m 8,0 c 0.02038,-1.65 0.244498,-2.20393565 0.498042,-1.2309681 0.253543,0.9729675 0.236869,2.3229675 -0.03705,3 C 24.388563,4.9460644 24.181118,4.15 24.201498,2.5 Z"
         style="color:#000000;font-style:normal;font-variant:normal;font-weight:normal;font-stretch:normal;font-size:medium;line-height:normal;font-family:sans-serif;font-variant-ligatures:normal;font-variant-position:normal;font-variant-caps:normal;font-variant-numeric:normal;font-variant-alternates:normal;font-variant-east-asian:normal;font-feature-settings:normal;font-variation-settings:normal;text-indent:0;text-align:start;text-decoration:none;text-decoration-line:none;text-decoration-style:solid;text-decoration-color:#000000;letter-spacing:normal;word-spacing:normal;text-transform:none;writing-mode:lr-tb;direction:ltr;text-orientation:mixed;dominant-baseline:auto;baseline-shift:baseline;text-anchor:start;white-space:normal;shape-padding:0;shape-margin:0;inline-size:0;clip-rule:nonzero;display:inline;overflow:visible;visibility:visible;isolation:auto;mix-blend-mode:normal;color-interpolation:sRGB;color-interpolation-filters:linearRGB;solid-color:#000000;solid-opacity:1;vector-effect:none;fill:#aa8847;fill-opacity:1;fill-rule:nonzero;stroke:none;stroke-width:0.4;stroke-linecap:butt;stroke-linejoin:miter;stroke-miterlimit:4;stroke-dasharray:none;stroke-dashoffset:0;stroke-opacity:1;color-rendering:auto;image-rendering:auto;shape-rendering:auto;text-rendering:auto;enable-background:accumulate;stop-color:#000000;stop-opacity:1" />
      <path
         id="path2544"
         d="M 0.50195312,0.6953125 C 0.46494142,0.6850085 0.42105032,0.6895685 0.38867188,0.7070313 0.32391498,0.7419574 0.29599428,0.7978749 0.26953125,0.8632813 0.16367917,1.1249068 0.11180655,1.6686584 0.1015625,2.4980469 c -0.01024405,0.8293884 0.0339652,1.443307 0.12304688,1.7851562 0.0222704,0.085462 0.0469711,0.1529682 0.0800781,0.2089844 0.033107,0.056016 0.0819699,0.1103052 0.15820312,0.1171875 C 0.5391238,4.616255 0.59850924,4.570215 0.64062498,4.517578 0.68274074,4.464941 0.71951832,4.3964617 0.75585938,4.3066406 1.0465878,3.5880718 1.05638,2.2399857 0.796875,1.2441406 0.73199874,0.99517934 0.67966834,0.84317696 0.58984375,0.75 0.5673876,0.72670576 0.53896484,0.70561651 0.50195312,0.6953125 Z m 7.99999998,0 c -0.037012,-0.010304 -0.080903,-0.005744 -0.1132812,0.0117188 -0.064757,0.0349261 -0.092678,0.0908436 -0.1191407,0.15625 -0.105852,0.2616255 -0.1577245,0.8053772 -0.1679687,1.6347656 -0.010244,0.8293884 0.033965,1.443307 0.1230469,1.7851562 0.02227,0.085462 0.046971,0.1529682 0.080078,0.2089844 0.033107,0.056016 0.08197,0.1103052 0.1582031,0.1171875 0.076233,0.00688 0.1356187,-0.03916 0.1777344,-0.091797 C 8.6827407,4.464941 8.7195183,4.3964617 8.7558594,4.3066406 9.0465878,3.5880718 9.05638,2.2399857 8.796875,1.2441406 8.7319987,0.99517934 8.6796683,0.84317697 8.5898438,0.75 8.5673876,0.72670576 8.5389648,0.70561652 8.5019531,0.6953125 Z m 7.9999999,0 c -0.03701,-0.010304 -0.0809,-0.005744 -0.113281,0.0117188 -0.06476,0.0349261 -0.09268,0.0908436 -0.119141,0.15625 -0.105852,0.2616255 -0.157724,0.8053772 -0.167969,1.6347657 -0.01024,0.8293884 0.03396,1.4433068 0.123047,1.7851561 0.02227,0.085462 0.04697,0.1529683 0.08008,0.2089845 0.03311,0.056016 0.08197,0.1103053 0.158203,0.1171875 0.07623,0.00688 0.135618,-0.03916 0.177734,-0.091797 0.04212,-0.052637 0.07889,-0.1211164 0.115234,-0.2109375 0.290724,-0.7185685 0.300521,-2.0666549 0.04102,-3.0625 C 16.731999,0.99517935 16.679668,0.84317694 16.589844,0.75 16.567384,0.7267058 16.538964,0.7056165 16.501953,0.6953125 Z m 8,0 c -0.03701,-0.010304 -0.0809,-0.005744 -0.113281,0.0117188 -0.06476,0.0349261 -0.09268,0.0908436 -0.119141,0.15625 -0.105852,0.2616255 -0.157724,0.8053772 -0.167969,1.6347657 -0.01024,0.8293884 0.03396,1.4433068 0.123047,1.7851561 0.02227,0.085462 0.04697,0.1529683 0.08008,0.2089845 0.03311,0.056016 0.08197,0.1103053 0.158203,0.1171875 0.07623,0.00688 0.135618,-0.03916 0.177734,-0.091797 0.04212,-0.052637 0.07889,-0.1211164 0.115234,-0.2109375 0.290724,-0.7185685 0.300521,-2.0666549 0.04102,-3.0625 C 24.731999,0.99517935 24.679668,0.84317694 24.589844,0.75 24.567388,0.72670577 24.538965,0.70561652 24.501953,0.6953125 Z M 0.4609375,0.92773438 c 0.0295297,0.0430633 0.0866554,0.15258542 0.14257812,0.36718752 0.24758179,0.9500899 0.22391466,2.3020038 -0.0332031,2.9375 -0.0321397,0.079437 -0.0643576,0.1331852 -0.0859375,0.1601562 -0.0215799,0.026971 -0.0224895,0.0159 -0.003906,0.017578 0.0185832,0.00168 0.0133304,0.00963 -0.003906,-0.019531 C 0.4593258,4.361461 0.43747536,4.3072781 0.41796875,4.2324219 0.33994231,3.932997 0.29064561,3.3225647 0.30078125,2.5019531 0.3109169,1.6813416 0.38038998,1.1221003 0.45507812,0.9375 c 0.003573,-0.008831 0.002315,-0.003129 0.005859,-0.009766 z m 8,0 c 0.02953,0.0430633 0.086655,0.15258542 0.1425781,0.36718752 0.2475818,0.9500899 0.2239147,2.3020038 -0.033203,2.9375 -0.03214,0.079437 -0.064358,0.1331852 -0.085937,0.1601562 -0.02158,0.026971 -0.02249,0.0159 -0.00391,0.017578 0.018583,0.00168 0.01333,0.00963 -0.00391,-0.019531 C 8.4593258,4.361461 8.4374754,4.3072781 8.4179688,4.2324219 8.3399423,3.932997 8.2906456,3.3225647 8.3007812,2.5019531 8.310917,1.6813415 8.38039,1.1221004 8.4550781,0.9375 c 0.00357,-0.008831 0.00231,-0.003129 0.00586,-0.009766 z m 8.0000005,0 c 0.02953,0.0430633 0.08666,0.15258542 0.142578,0.36718752 0.247581,0.9500899 0.223911,2.3020035 -0.0332,2.9375 -0.03214,0.079437 -0.06436,0.1331852 -0.08594,0.1601562 -0.02158,0.026971 -0.02249,0.015901 -0.0039,0.017578 0.01858,0.00168 0.01333,0.00963 -0.0039,-0.019531 -0.01724,-0.029164 -0.03909,-0.083347 -0.05859,-0.1582031 -0.07803,-0.2994247 -0.127324,-0.9098572 -0.117188,-1.7304688 0.01014,-0.8206116 0.07961,-1.3798527 0.154297,-1.5644531 0.0036,-0.008831 0.0023,-0.003129 0.0059,-0.009766 z m 8,0 c 0.02953,0.0430633 0.08666,0.15258542 0.142578,0.36718752 0.247581,0.9500899 0.223911,2.3020035 -0.0332,2.9375 -0.03214,0.079437 -0.06436,0.1331852 -0.08594,0.1601562 -0.02158,0.026971 -0.02249,0.015901 -0.0039,0.017578 0.01858,0.00168 0.01333,0.00963 -0.0039,-0.019531 -0.01724,-0.029164 -0.03909,-0.083347 -0.05859,-0.1582031 -0.07803,-0.2994247 -0.127324,-0.9098572 -0.117188,-1.7304688 0.01014,-0.8206116 0.07961,-1.3798527 0.154297,-1.5644531 0.0036,-0.008831 0.0023,-0.003129 0.0059,-0.009766 z M 4.4453125,5.7480469 c -0.039991,0.01378 -0.066315,0.039816 -0.085937,0.066406 -0.039245,0.053181 -0.061698,0.1178433 -0.083984,0.203125 C 4.1862448,6.358705 4.1386719,7.0339364 4.1386719,8 c 0,0.9660636 0.047573,1.641295 0.1367187,1.9824219 0.022286,0.085282 0.04474,0.1499441 0.083984,0.2031251 0.019622,0.02659 0.045947,0.05263 0.085937,0.06641 0.039991,0.01378 0.090174,0.0072 0.1230469,-0.01172 0.065745,-0.03782 0.093669,-0.09503 0.1269531,-0.169922 0.033284,-0.074886 0.065372,-0.1713815 0.097656,-0.2949214 0.2582747,-0.9883189 0.2582747,-2.5624623 0,-3.5507812 C 4.7606844,6.1010695 4.7285964,6.0045742 4.6953125,5.9296875 4.6620286,5.8548008 4.6341046,5.7975851 4.5683594,5.7597656 4.5354868,5.7408559 4.4853031,5.734267 4.4453125,5.7480469 Z m 7.9999995,0 c -0.03999,0.01378 -0.06631,0.039816 -0.08594,0.066406 -0.03924,0.053181 -0.0617,0.1178433 -0.08398,0.203125 C 12.186245,6.358705 12.138672,7.0339365 12.138672,8 c 0,0.9660635 0.04757,1.641295 0.136719,1.9824219 0.02229,0.085282 0.04474,0.1499441 0.08398,0.2031251 0.01962,0.02659 0.04595,0.05263 0.08594,0.06641 0.03999,0.01378 0.09018,0.0072 0.123047,-0.01172 0.06575,-0.03782 0.09367,-0.09503 0.126953,-0.169922 0.03328,-0.074886 0.06537,-0.1713815 0.09766,-0.2949214 0.258274,-0.9883189 0.258274,-2.5624623 0,-3.5507812 -0.03228,-0.1235399 -0.06437,-0.2200352 -0.09766,-0.2949219 -0.03328,-0.074887 -0.06121,-0.1321024 -0.126953,-0.1699219 -0.03287,-0.01891 -0.08306,-0.025498 -0.123047,-0.011719 z m 8,0 c -0.03999,0.01378 -0.06632,0.039816 -0.08594,0.066406 -0.03925,0.053181 -0.0617,0.1178433 -0.08398,0.203125 C 20.186245,6.358705 20.138672,7.0339365 20.138672,8 c 0,0.9660635 0.04757,1.641295 0.136719,1.9824219 0.02229,0.085282 0.04474,0.1499441 0.08398,0.2031251 0.01962,0.02659 0.04595,0.05263 0.08594,0.06641 0.03999,0.01378 0.09017,0.0072 0.123047,-0.01172 0.06575,-0.03782 0.09367,-0.09503 0.126953,-0.169922 0.03328,-0.074886 0.06537,-0.1713815 0.09766,-0.2949214 0.258274,-0.9883189 0.258274,-2.5624623 0,-3.5507812 -0.03228,-0.1235399 -0.06437,-0.2200352 -0.09766,-0.2949219 -0.03328,-0.074887 -0.06121,-0.1321024 -0.126953,-0.1699219 -0.03287,-0.01891 -0.08306,-0.025498 -0.123047,-0.011719 z m 8,0 c -0.03999,0.01378 -0.06632,0.039816 -0.08594,0.066406 -0.03925,0.053181 -0.0617,0.1178433 -0.08398,0.203125 C 28.186245,6.358705 28.138672,7.0339365 28.138672,8 c 0,0.9660635 0.04757,1.641295 0.136719,1.9824219 0.02229,0.085282 0.04474,0.1499441 0.08398,0.2031251 0.01962,0.02659 0.04595,0.05263 0.08594,0.06641 0.03999,0.01378 0.09017,0.0072 0.123047,-0.01172 0.06575,-0.03782 0.09367,-0.09503 0.126953,-0.169922 0.03328,-0.074886 0.06537,-0.1713815 0.09766,-0.2949214 0.258274,-0.9883189 0.258274,-2.5624623 0,-3.5507812 -0.03228,-0.1235399 -0.06437,-0.2200352 -0.09766,-0.2949219 -0.03328,-0.074887 -0.06121,-0.1321024 -0.126953,-0.1699219 -0.03287,-0.01891 -0.08306,-0.025498 -0.123047,-0.011719 z M 4.5,5.9882812 c 0.00683,0.011181 0.00441,0.00504 0.011719,0.021484 0.026114,0.058756 0.057293,0.1485399 0.087891,0.265625 0.2447804,0.9366811 0.2447804,2.5125377 0,3.4492188 C 4.569012,9.8416941 4.537834,9.9314781 4.511719,9.990234 4.5044119,10.006674 4.5068346,10.000538 4.5,10.011719 4.4896687,9.9878971 4.4799884,9.9746458 4.46875,9.9316406 4.3921163,9.6383925 4.3378906,8.9589364 4.3378906,8 4.3378906,7.0410636 4.3921166,6.3616075 4.46875,6.0683594 4.479988,6.0253544 4.489669,6.0121034 4.5,5.9882812 Z m 8,0 c 0.0068,0.011181 0.0044,0.00504 0.01172,0.021484 0.02611,0.058756 0.05729,0.1485399 0.08789,0.265625 0.24478,0.9366811 0.24478,2.5125377 0,3.4492188 -0.0306,0.1170851 -0.06178,0.2068691 -0.08789,0.265625 -0.0073,0.01644 -0.0049,0.010304 -0.01172,0.021485 C 12.48967,9.987897 12.47999,9.974646 12.46875,9.931641 12.392116,9.6383925 12.337891,8.9589365 12.337891,8 c 0,-0.9589365 0.05422,-1.6383925 0.130859,-1.9316406 0.01124,-0.043005 0.02092,-0.056256 0.03125,-0.080078 z m 8,0 c 0.0068,0.011181 0.0044,0.00504 0.01172,0.021484 0.02611,0.058756 0.05729,0.1485399 0.08789,0.265625 0.24478,0.9366811 0.24478,2.5125377 0,3.4492188 -0.0306,0.1170851 -0.06178,0.2068691 -0.08789,0.265625 -0.0073,0.01644 -0.0049,0.010304 -0.01172,0.021485 C 20.48967,9.987897 20.47999,9.974646 20.46875,9.931641 20.392116,9.6383925 20.337891,8.9589365 20.337891,8 c 0,-0.9589365 0.05423,-1.6383925 0.130859,-1.9316406 0.01124,-0.043005 0.02092,-0.056256 0.03125,-0.080078 z m 8,0 c 0.0068,0.011181 0.0044,0.00504 0.01172,0.021484 0.02611,0.058756 0.05729,0.1485399 0.08789,0.265625 0.24478,0.9366811 0.24478,2.5125377 0,3.4492188 -0.0306,0.1170851 -0.06178,0.2068691 -0.08789,0.265625 -0.0073,0.01644 -0.0049,0.010304 -0.01172,0.021485 C 28.48967,9.987897 28.47999,9.974646 28.46875,9.931641 28.392116,9.6383925 28.337891,8.9589365 28.337891,8 c 0,-0.9589365 0.05423,-1.6383925 0.130859,-1.9316406 0.01124,-0.043005 0.02092,-0.056256 0.03125,-0.080078 z M 0.50195312,11.695312 c -0.0370117,-0.0103 -0.0809028,-0.0057 -0.11328124,0.01172 -0.0647569,0.03493 -0.0926776,0.09084 -0.11914063,0.15625 -0.10585207,0.261626 -0.1577247,0.805377 -0.16796875,1.634766 -0.01024405,0.829388 0.0339652,1.443307 0.12304688,1.785156 0.0222704,0.08546 0.0469711,0.152968 0.0800781,0.208985 0.033107,0.05602 0.08197,0.110305 0.15820312,0.117187 0.0762332,0.0069 0.13561863,-0.03916 0.17773438,-0.0918 0.0421158,-0.05264 0.0788933,-0.121116 0.11523438,-0.210937 C 1.0465878,14.588071 1.05638,13.239985 0.796875,12.244141 0.73199874,11.995179 0.67966832,11.843177 0.58984375,11.75 0.56738765,11.72671 0.53896485,11.70562 0.50195315,11.69531 Z m 7.99999998,0 c -0.037012,-0.0103 -0.080903,-0.0057 -0.1132812,0.01172 -0.064757,0.03493 -0.092678,0.09084 -0.1191407,0.15625 -0.105852,0.261626 -0.1577245,0.805377 -0.1679687,1.634766 -0.010244,0.829388 0.033965,1.443307 0.1230469,1.785156 0.02227,0.08546 0.046971,0.152968 0.080078,0.208985 0.033107,0.05602 0.08197,0.110305 0.1582031,0.117187 0.076233,0.0069 0.1356186,-0.03916 0.1777344,-0.0918 0.042116,-0.05264 0.078893,-0.121116 0.1152344,-0.210937 0.2907284,-0.71857 0.3005206,-2.066656 0.041016,-3.0625 C 8.7319987,11.995179 8.6796683,11.843177 8.5898438,11.75 8.5673878,11.72671 8.5389648,11.70562 8.5019528,11.69531 Z m 7.9999999,0 c -0.03701,-0.0103 -0.0809,-0.0057 -0.113281,0.01172 -0.06476,0.03493 -0.09268,0.09084 -0.119141,0.15625 -0.105852,0.261626 -0.157724,0.805377 -0.167969,1.634766 -0.01024,0.829388 0.03396,1.443307 0.123047,1.785156 0.02227,0.08546 0.04697,0.152968 0.08008,0.208985 0.03311,0.05602 0.08197,0.110305 0.158203,0.117187 0.07623,0.0069 0.135618,-0.03916 0.177734,-0.0918 0.04212,-0.05264 0.07889,-0.121116 0.115234,-0.210937 0.290724,-0.718569 0.300521,-2.066656 0.04102,-3.0625 -0.06488,-0.248962 -0.117207,-0.400964 -0.207031,-0.494141 -0.02246,-0.02329 -0.05088,-0.04438 -0.08789,-0.05469 z m 8,0 c -0.03701,-0.0103 -0.0809,-0.0057 -0.113281,0.01172 -0.06476,0.03493 -0.09268,0.09084 -0.119141,0.15625 -0.105852,0.261626 -0.157724,0.805377 -0.167969,1.634766 -0.01024,0.829388 0.03396,1.443307 0.123047,1.785156 0.02227,0.08546 0.04697,0.152968 0.08008,0.208985 0.03311,0.05602 0.08197,0.110305 0.158203,0.117187 0.07623,0.0069 0.135618,-0.03916 0.177734,-0.0918 0.04212,-0.05264 0.07889,-0.121116 0.115234,-0.210937 0.290724,-0.718569 0.300521,-2.066656 0.04102,-3.0625 -0.06488,-0.248962 -0.117207,-0.400964 -0.207031,-0.494141 -0.02246,-0.02329 -0.05088,-0.04438 -0.08789,-0.05469 z M 0.4609375,11.927734 c 0.0295297,0.04306 0.0866554,0.152586 0.14257812,0.367188 0.24758179,0.950089 0.22391469,2.302003 -0.0332031,2.9375 -0.0321397,0.07944 -0.0643576,0.133185 -0.0859375,0.160156 -0.0215799,0.02697 -0.0224895,0.0159 -0.003906,0.01758 0.0185832,0.0017 0.0133304,0.0096 -0.003906,-0.01953 -0.0172367,-0.02916 -0.0390871,-0.08335 -0.0585938,-0.158203 -0.0780264,-0.299425 -0.12732314,-0.909857 -0.1171875,-1.730469 0.0101356,-0.820611 0.0796087,-1.379853 0.15429687,-1.564453 0.003573,-0.0088 0.002315,-0.0031 0.005859,-0.0098 z m 8,0 c 0.02953,0.04306 0.086655,0.152586 0.1425781,0.367188 0.2475818,0.950089 0.2239147,2.302003 -0.033203,2.9375 -0.03214,0.07944 -0.064358,0.133185 -0.085937,0.160156 -0.02158,0.02697 -0.02249,0.0159 -0.00391,0.01758 0.018583,0.0017 0.01333,0.0096 -0.00391,-0.01953 -0.017237,-0.02916 -0.039087,-0.08335 -0.058594,-0.158203 C 8.3399423,14.932997 8.2906456,14.322565 8.3007812,13.501953 8.310917,12.681342 8.38039,12.1221 8.4550781,11.9375 c 0.00357,-0.0088 0.00231,-0.0031 0.00586,-0.0098 z m 8.0000005,0 c 0.02953,0.04306 0.08666,0.152586 0.142578,0.367188 0.247581,0.950089 0.223911,2.302003 -0.0332,2.9375 -0.03214,0.07944 -0.06436,0.133185 -0.08594,0.160156 -0.02158,0.02697 -0.02249,0.0159 -0.0039,0.01758 0.01858,0.0017 0.01333,0.0096 -0.0039,-0.01953 -0.01724,-0.02916 -0.03909,-0.08335 -0.05859,-0.158203 -0.07803,-0.299425 -0.127324,-0.909857 -0.117188,-1.730469 0.01014,-0.820611 0.07961,-1.379853 0.154297,-1.564453 0.0036,-0.0088 0.0023,-0.0031 0.0059,-0.0098 z m 8,0 c 0.02953,0.04306 0.08666,0.152586 0.142578,0.367188 0.247581,0.950089 0.223911,2.302003 -0.0332,2.9375 -0.03214,0.07944 -0.06436,0.133185 -0.08594,0.160156 -0.02158,0.02697 -0.02249,0.0159 -0.0039,0.01758 0.01858,0.0017 0.01333,0.0096 -0.0039,-0.01953 -0.01724,-0.02916 -0.03909,-0.08335 -0.05859,-0.158203 -0.07803,-0.299425 -0.127324,-0.909857 -0.117188,-1.730469 0.01014,-0.820611 0.07961,-1.379853 0.154297,-1.564453 0.0036,-0.0088 0.0023,-0.0031 0.0059,-0.0098 z M 4.5019531,16.695312 c -0.037012,-0.0103 -0.080903,-0.0057 -0.1132812,0.01172 -0.064757,0.03493 -0.092678,0.09084 -0.1191407,0.15625 -0.105852,0.261626 -0.1577245,0.805377 -0.1679687,1.634766 -0.010244,0.829388 0.033965,1.443307 0.1230469,1.785156 0.02227,0.08546 0.046971,0.152968 0.080078,0.208985 0.033107,0.05602 0.08197,0.110305 0.1582031,0.117187 0.076233,0.0069 0.1356186,-0.03916 0.1777344,-0.0918 0.042116,-0.05264 0.078893,-0.121116 0.1152344,-0.210937 0.2907284,-0.71857 0.3005206,-2.066656 0.041016,-3.0625 C 4.7319987,16.995179 4.6796683,16.843177 4.5898438,16.75 4.5673878,16.72671 4.5389648,16.70562 4.5019528,16.69531 Z m 7.9999999,0 c -0.03701,-0.0103 -0.0809,-0.0057 -0.113281,0.01172 -0.06476,0.03493 -0.09268,0.09084 -0.119141,0.15625 -0.105852,0.261626 -0.157724,0.805377 -0.167969,1.634766 -0.01024,0.829388 0.03397,1.443307 0.123047,1.785156 0.02227,0.08546 0.04697,0.152968 0.08008,0.208985 0.03311,0.05602 0.08197,0.110305 0.158203,0.117187 0.07623,0.0069 0.135618,-0.03916 0.177734,-0.0918 0.04212,-0.05264 0.07889,-0.121116 0.115234,-0.210937 0.290724,-0.718569 0.300521,-2.066656 0.04102,-3.0625 -0.06488,-0.248962 -0.117207,-0.400964 -0.207031,-0.494141 -0.02246,-0.02329 -0.05088,-0.04438 -0.08789,-0.05469 z m 8,0 c -0.03701,-0.0103 -0.0809,-0.0057 -0.113281,0.01172 -0.06476,0.03493 -0.09268,0.09084 -0.119141,0.15625 -0.105852,0.261626 -0.157724,0.805377 -0.167969,1.634766 -0.01024,0.829388 0.03396,1.443307 0.123047,1.785156 0.02227,0.08546 0.04697,0.152968 0.08008,0.208985 0.03311,0.05602 0.08197,0.110305 0.158203,0.117187 0.07623,0.0069 0.135618,-0.03916 0.177734,-0.0918 0.04212,-0.05264 0.07889,-0.121116 0.115234,-0.210937 0.290724,-0.718569 0.300521,-2.066656 0.04102,-3.0625 -0.06488,-0.248962 -0.117207,-0.400964 -0.207031,-0.494141 -0.02246,-0.02329 -0.05088,-0.04438 -0.08789,-0.05469 z m 8,0 c -0.03701,-0.0103 -0.0809,-0.0057 -0.113281,0.01172 -0.06476,0.03493 -0.09268,0.09084 -0.119141,0.15625 -0.105852,0.261626 -0.157724,0.805377 -0.167969,1.634766 -0.01024,0.829388 0.03396,1.443307 0.123047,1.785156 0.02227,0.08546 0.04697,0.152968 0.08008,0.208985 0.03311,0.05602 0.08197,0.110305 0.158203,0.117187 0.07623,0.0069 0.135618,-0.03916 0.177734,-0.0918 0.04212,-0.05264 0.07889,-0.121116 0.115234,-0.210937 0.290724,-0.718569 0.300521,-2.066656 0.04102,-3.0625 -0.06488,-0.248962 -0.117207,-0.400964 -0.207031,-0.494141 -0.02246,-0.02329 -0.05088,-0.04438 -0.08789,-0.05469 z M 4.4609375,16.927734 c 0.02953,0.04306 0.086655,0.152586 0.1425781,0.367188 0.2475818,0.950089 0.2239147,2.302003 -0.033203,2.9375 -0.03214,0.07944 -0.064358,0.133185 -0.085937,0.160156 -0.02158,0.02697 -0.022489,0.0159 -0.00391,0.01758 0.018583,0.0017 0.01333,0.0096 -0.00391,-0.01953 -0.017237,-0.02916 -0.039087,-0.08335 -0.058594,-0.158203 C 4.3399423,19.932997 4.2906456,19.322565 4.3007812,18.501953 4.310917,17.681342 4.38039,17.1221 4.4550781,16.9375 c 0.00357,-0.0088 0.00231,-0.0031 0.00586,-0.0098 z m 8.0000005,0 c 0.02953,0.04306 0.08666,0.152586 0.142578,0.367188 0.247581,0.950089 0.223911,2.302003 -0.0332,2.9375 -0.03214,0.07944 -0.06436,0.133185 -0.08594,0.160156 -0.02158,0.02697 -0.02249,0.0159 -0.0039,0.01758 0.01858,0.0017 0.01333,0.0096 -0.0039,-0.01953 -0.01724,-0.02916 -0.03909,-0.08335 -0.05859,-0.158203 -0.07803,-0.299425 -0.127324,-0.909857 -0.117188,-1.730469 0.01014,-0.820611 0.07961,-1.379853 0.154297,-1.564453 0.0036,-0.0088 0.0023,-0.0031 0.0059,-0.0098 z m 8,0 c 0.02953,0.04306 0.08666,0.152586 0.142578,0.367188 0.247581,0.950089 0.223911,2.302003 -0.0332,2.9375 -0.03214,0.07944 -0.06436,0.133185 -0.08594,0.160156 -0.02158,0.02697 -0.02249,0.0159 -0.0039,0.01758 0.01858,0.0017 0.01333,0.0096 -0.0039,-0.01953 -0.01724,-0.02916 -0.03909,-0.08335 -0.05859,-0.158203 -0.07803,-0.299425 -0.127324,-0.909857 -0.117188,-1.730469 0.01014,-0.820611 0.07961,-1.379853 0.154297,-1.564453 0.0036,-0.0088 0.0023,-0.0031 0.0059,-0.0098 z m 8,0 c 0.02953,0.04306 0.08666,0.152586 0.142578,0.367188 0.247581,0.950089 0.223911,2.302003 -0.0332,2.9375 -0.03214,0.07944 -0.06436,0.133185 -0.08594,0.160156 -0.02158,0.02697 -0.02249,0.0159 -0.0039,0.01758 0.01858,0.0017 0.01333,0.0096 -0.0039,-0.01953 -0.01724,-0.02916 -0.03909,-0.08335 -0.05859,-0.158203 -0.07803,-0.299425 -0.127324,-0.909857 -0.117188,-1.730469 0.01014,-0.820611 0.07961,-1.379853 0.154297,-1.564453 0.0036,-0.0088 0.0023,-0.0031 0.0059,-0.0098 z M 0.4453125,21.748047 C 0.4053219,21.761827 0.3789974,21.787867 0.359375,21.814457 0.3201302,21.867637 0.2976771,21.9323 0.2753906,22.017582 0.18624485,22.358705 0.13867188,23.033936 0.13867188,24 c -10e-9,0.966064 0.047573,1.641295 0.13671874,1.982422 0.0222865,0.08528 0.0447396,0.149944 0.0839844,0.203125 0.0196224,0.02659 0.0459469,0.05263 0.0859375,0.06641 0.0399906,0.01378 0.0901743,0.0072 0.12304688,-0.01172 0.0657452,-0.03782 0.0936692,-0.09503 0.12695312,-0.169922 0.0332839,-0.07489 0.0653719,-0.171382 0.0976563,-0.294921 0.25827478,-0.988319 0.25827478,-2.562463 0,-3.550782 -0.0322843,-0.123539 -0.0643723,-0.220035 -0.0976563,-0.294921 -0.0332839,-0.07489 -0.0612079,-0.132103 -0.12695312,-0.169922 -0.0328726,-0.01891 -0.0830563,-0.0255 -0.12304688,-0.01172 z m 8,0 c -0.039991,0.01378 -0.066315,0.03982 -0.085937,0.06641 -0.039245,0.05318 -0.061698,0.117843 -0.083984,0.203125 C 8.1862448,22.358705 8.1386719,23.033936 8.1386719,24 c 0,0.966064 0.047573,1.641295 0.1367187,1.982422 0.022286,0.08528 0.04474,0.149944 0.083984,0.203125 0.019622,0.02659 0.045947,0.05263 0.085937,0.06641 0.039991,0.01378 0.090174,0.0072 0.1230469,-0.01172 0.065745,-0.03782 0.093669,-0.09503 0.1269531,-0.169922 0.033284,-0.07489 0.065372,-0.171382 0.097656,-0.294921 0.2582747,-0.988319 0.2582747,-2.562463 0,-3.550782 -0.032284,-0.123539 -0.064372,-0.220035 -0.097656,-0.294921 -0.033284,-0.07489 -0.061208,-0.132103 -0.1269531,-0.169922 -0.032873,-0.01891 -0.083056,-0.0255 -0.1230469,-0.01172 z m 7.9999995,0 c -0.03999,0.01378 -0.06632,0.03982 -0.08594,0.06641 -0.03925,0.05318 -0.0617,0.117843 -0.08398,0.203125 -0.08915,0.341127 -0.136719,1.016358 -0.136719,1.982422 0,0.966064 0.04757,1.641295 0.136719,1.982422 0.02229,0.08528 0.04474,0.149944 0.08398,0.203125 0.01962,0.02659 0.04595,0.05263 0.08594,0.06641 0.03999,0.01378 0.09017,0.0072 0.123047,-0.01172 0.06575,-0.03782 0.09367,-0.09503 0.126953,-0.169922 0.03328,-0.07489 0.06537,-0.171382 0.09766,-0.294921 0.258274,-0.988319 0.258274,-2.562463 0,-3.550782 -0.03228,-0.123539 -0.06437,-0.220035 -0.09766,-0.294921 -0.03328,-0.07489 -0.06121,-0.132103 -0.126953,-0.169922 -0.03287,-0.01891 -0.08306,-0.0255 -0.123047,-0.01172 z m 8,0 c -0.03999,0.01378 -0.06632,0.03982 -0.08594,0.06641 -0.03925,0.05318 -0.0617,0.117843 -0.08398,0.203125 -0.08915,0.341127 -0.136719,1.016358 -0.136719,1.982422 0,0.966064 0.04757,1.641295 0.136719,1.982422 0.02229,0.08528 0.04474,0.149944 0.08398,0.203125 0.01962,0.02659 0.04595,0.05263 0.08594,0.06641 0.03999,0.01378 0.09017,0.0072 0.123047,-0.01172 0.06575,-0.03782 0.09367,-0.09503 0.126953,-0.169922 0.03328,-0.07489 0.06537,-0.171382 0.09766,-0.294921 0.258274,-0.988319 0.258274,-2.562463 0,-3.550782 -0.03228,-0.123539 -0.06437,-0.220035 -0.09766,-0.294921 -0.03328,-0.07489 -0.06121,-0.132103 -0.126953,-0.169922 -0.03287,-0.01891 -0.08306,-0.0255 -0.123047,-0.01172 z M 0.5,21.988281 c 0.006835,0.01118 0.004412,0.005 0.0117188,0.02148 0.0261145,0.05876 0.0572931,0.148539 0.0878906,0.265625 0.24478035,0.936681 0.24478035,2.512537 0,3.449218 C 0.5690119,25.84169 0.5378332,25.931474 0.5117188,25.990229 0.5044118,26.006669 0.5068348,26.000529 0.5,26.011709 0.4896687,25.987889 0.4799884,25.974639 0.46875,25.931629 0.39211626,25.638393 0.33789063,24.958936 0.33789062,24 c 0,-0.958936 0.0542256,-1.638393 0.13085938,-1.931641 0.0112384,-0.04301 0.0209187,-0.05626 0.03125,-0.08008 z m 8,0 c 0.00683,0.01118 0.00441,0.005 0.011719,0.02148 0.026114,0.05876 0.057293,0.148539 0.087891,0.265625 0.2447804,0.936681 0.2447804,2.512537 0,3.449218 -0.030598,0.117086 -0.061776,0.20687 -0.087891,0.265625 -0.00731,0.01644 -0.00488,0.0103 -0.011719,0.02148 C 8.489669,25.987889 8.479988,25.974639 8.46875,25.931629 8.3921163,25.638393 8.3378906,24.958936 8.3378906,24 c 0,-0.958936 0.054226,-1.638393 0.1308594,-1.931641 0.011238,-0.04301 0.020919,-0.05626 0.03125,-0.08008 z m 8,0 c 0.0068,0.01118 0.0044,0.005 0.01172,0.02148 0.02611,0.05876 0.05729,0.148539 0.08789,0.265625 0.24478,0.936681 0.24478,2.512537 0,3.449218 -0.0306,0.117086 -0.06178,0.20687 -0.08789,0.265625 -0.0073,0.01644 -0.0049,0.0103 -0.01172,0.02148 -0.01033,-0.02382 -0.02001,-0.03707 -0.03125,-0.08008 C 16.392116,25.638393 16.337891,24.958936 16.337891,24 c 0,-0.958936 0.05423,-1.638393 0.130859,-1.931641 0.01124,-0.04301 0.02092,-0.05626 0.03125,-0.08008 z m 8,0 c 0.0068,0.01118 0.0044,0.005 0.01172,0.02148 0.02611,0.05876 0.05729,0.148539 0.08789,0.265625 0.24478,0.936681 0.24478,2.512537 0,3.449218 -0.0306,0.117086 -0.06178,0.20687 -0.08789,0.265625 -0.0073,0.01644 -0.0049,0.0103 -0.01172,0.02148 -0.01033,-0.02382 -0.02001,-0.03707 -0.03125,-0.08008 C 24.392116,25.638393 24.337891,24.958936 24.337891,24 c 0,-0.958936 0.05423,-1.638393 0.130859,-1.931641 0.01124,-0.04301 0.02092,-0.05626 0.03125,-0.08008 z M 4.5019531,27.695312 c -0.037012,-0.0103 -0.080903,-0.0057 -0.1132812,0.01172 -0.064757,0.03493 -0.092678,0.09084 -0.1191407,0.15625 -0.105852,0.261626 -0.1577245,0.805377 -0.1679687,1.634766 -0.010244,0.829388 0.033965,1.443307 0.1230469,1.785156 0.02227,0.08546 0.046971,0.152968 0.080078,0.208985 0.033107,0.05602 0.08197,0.110305 0.1582031,0.117187 0.076233,0.0069 0.1356186,-0.03916 0.1777344,-0.0918 0.042116,-0.05264 0.078893,-0.121116 0.1152344,-0.210937 0.2907284,-0.71857 0.3005206,-2.066656 0.041016,-3.0625 C 4.7319987,27.995179 4.6796683,27.843177 4.5898438,27.75 4.5673878,27.72671 4.5389648,27.70562 4.5019528,27.69531 Z m 7.9999999,0 c -0.03701,-0.0103 -0.0809,-0.0057 -0.113281,0.01172 -0.06476,0.03493 -0.09268,0.09084 -0.119141,0.15625 -0.105852,0.261626 -0.157724,0.805377 -0.167969,1.634766 -0.01024,0.829388 0.03397,1.443307 0.123047,1.785156 0.02227,0.08546 0.04697,0.152968 0.08008,0.208985 0.03311,0.05602 0.08197,0.110305 0.158203,0.117187 0.07623,0.0069 0.135618,-0.03916 0.177734,-0.0918 0.04212,-0.05264 0.07889,-0.121116 0.115234,-0.210937 0.290724,-0.718569 0.300521,-2.066656 0.04102,-3.0625 -0.06488,-0.248962 -0.117207,-0.400964 -0.207031,-0.494141 -0.02246,-0.02329 -0.05088,-0.04438 -0.08789,-0.05469 z m 8,0 c -0.03701,-0.0103 -0.0809,-0.0057 -0.113281,0.01172 -0.06476,0.03493 -0.09268,0.09084 -0.119141,0.15625 -0.105852,0.261626 -0.157724,0.805377 -0.167969,1.634766 -0.01024,0.829388 0.03396,1.443307 0.123047,1.785156 0.02227,0.08546 0.04697,0.152968 0.08008,0.208985 0.03311,0.05602 0.08197,0.110305 0.158203,0.117187 0.07623,0.0069 0.135618,-0.03916 0.177734,-0.0918 0.04212,-0.05264 0.07889,-0.121116 0.115234,-0.210937 0.290724,-0.718569 0.300521,-2.066656 0.04102,-3.0625 -0.06488,-0.248962 -0.117207,-0.400964 -0.207031,-0.494141 -0.02246,-0.02329 -0.05088,-0.04438 -0.08789,-0.05469 z m 8,0 c -0.03701,-0.0103 -0.0809,-0.0057 -0.113281,0.01172 -0.06476,0.03493 -0.09268,0.09084 -0.119141,0.15625 -0.105852,0.261626 -0.157724,0.805377 -0.167969,1.634766 -0.01024,0.829388 0.03396,1.443307 0.123047,1.785156 0.02227,0.08546 0.04697,0.152968 0.08008,0.208985 0.03311,0.05602 0.08197,0.110305 0.158203,0.117187 0.07623,0.0069 0.135618,-0.03916 0.177734,-0.0918 0.04212,-0.05264 0.07889,-0.121116 0.115234,-0.210937 0.290724,-0.718569 0.300521,-2.066656 0.04102,-3.0625 -0.06488,-0.248962 -0.117207,-0.400964 -0.207031,-0.494141 -0.02246,-0.02329 -0.05088,-0.04438 -0.08789,-0.05469 z M 4.4609375,27.927734 c 0.02953,0.04306 0.086655,0.152586 0.1425781,0.367188 0.2475818,0.950089 0.2239147,2.302003 -0.033203,2.9375 -0.03214,0.07944 -0.064358,0.133185 -0.085937,0.160156 -0.02158,0.02697 -0.022489,0.0159 -0.00391,0.01758 0.018583,0.0017 0.01333,0.0096 -0.00391,-0.01953 -0.017237,-0.02916 -0.039087,-0.08335 -0.058594,-0.158203 C 4.3399423,30.932997 4.2906456,30.322565 4.3007812,29.501953 4.310917,28.681342 4.38039,28.1221 4.4550781,27.9375 c 0.00357,-0.0088 0.00231,-0.0031 0.00586,-0.0098 z m 8.0000005,0 c 0.02953,0.04306 0.08666,0.152586 0.142578,0.367188 0.247581,0.950089 0.223911,2.302003 -0.0332,2.9375 -0.03214,0.07944 -0.06436,0.133185 -0.08594,0.160156 -0.02158,0.02697 -0.02249,0.0159 -0.0039,0.01758 0.01858,0.0017 0.01333,0.0096 -0.0039,-0.01953 -0.01724,-0.02916 -0.03909,-0.08335 -0.05859,-0.158203 -0.07803,-0.299425 -0.127324,-0.909857 -0.117188,-1.730469 0.01014,-0.820611 0.07961,-1.379853 0.154297,-1.564453 0.0036,-0.0088 0.0023,-0.0031 0.0059,-0.0098 z m 8,0 c 0.02953,0.04306 0.08666,0.152586 0.142578,0.367188 0.247581,0.950089 0.223911,2.302003 -0.0332,2.9375 -0.03214,0.07944 -0.06436,0.133185 -0.08594,0.160156 -0.02158,0.02697 -0.02249,0.0159 -0.0039,0.01758 0.01858,0.0017 0.01333,0.0096 -0.0039,-0.01953 -0.01724,-0.02916 -0.03909,-0.08335 -0.05859,-0.158203 -0.07803,-0.299425 -0.127324,-0.909857 -0.117188,-1.730469 0.01014,-0.820611 0.07961,-1.379853 0.154297,-1.564453 0.0036,-0.0088 0.0023,-0.0031 0.0059,-0.0098 z m 8,0 c 0.02953,0.04306 0.08666,0.152586 0.142578,0.367188 0.247581,0.950089 0.223911,2.302003 -0.0332,2.9375 -0.03214,0.07944 -0.06436,0.133185 -0.08594,0.160156 -0.02158,0.02697 -0.02249,0.0159 -0.0039,0.01758 0.01858,0.0017 0.01333,0.0096 -0.0039,-0.01953 -0.01724,-0.02916 -0.03909,-0.08335 -0.05859,-0.158203 -0.07803,-0.299425 -0.127324,-0.909857 -0.117188,-1.730469 0.01014,-0.820611 0.07961,-1.379853 0.154297,-1.564453 0.0036,-0.0088 0.0023,-0.0031 0.0059,-0.0098 z"
         style="color:#000000;font-style:normal;font-variant:normal;font-weight:normal;font-stretch:normal;font-size:medium;line-height:normal;font-family:sans-serif;font-variant-ligatures:normal;font-variant-position:normal;font-variant-caps:normal;font-variant-numeric:normal;font-variant-alternates:normal;font-variant-east-asian:normal;font-feature-settings:normal;font-variation-settings:normal;text-indent:0;text-align:start;text-decoration:none;text-decoration-line:none;text-decoration-style:solid;text-decoration-color:#000000;letter-spacing:normal;word-spacing:normal;text-transform:none;writing-mode:lr-tb;direction:ltr;text-orientation:mixed;dominant-baseline:auto;baseline-shift:baseline;text-anchor:start;white-space:normal;shape-padding:0;shape-margin:0;inline-size:0;clip-rule:nonzero;display:inline;overflow:visible;visibility:visible;isolation:auto;mix-blend-mode:normal;color-interpolation:sRGB;color-interpolation-filters:linearRGB;solid-color:#000000;solid-opacity:1;vector-effect:none;fill:#aa8847;fill-opacity:1;fill-rule:nonzero;stroke:none;stroke-width:0.4;stroke-linecap:butt;stroke-linejoin:miter;stroke-miterlimit:4;stroke-dasharray:none;stroke-dashoffset:0;stroke-opacity:1;color-rendering:auto;image-rendering:auto;shape-rendering:auto;text-rendering:auto;enable-background:accumulate;stop-color:#000000;stop-opacity:1" />
    </g>
  </g>
  <path
     inkscape:connector-curvature="0"
     id="path4520"
     d=""
     style="fill:#000000;stroke-width:1" />
</svg>
