<?xml version="1.0" encoding="UTF-8" standalone="no"?>
<svg
   xmlns:dc="http://purl.org/dc/elements/1.1/"
   xmlns:cc="http://creativecommons.org/ns#"
   xmlns:rdf="http://www.w3.org/1999/02/22-rdf-syntax-ns#"
   xmlns:svg="http://www.w3.org/2000/svg"
   xmlns="http://www.w3.org/2000/svg"
   xmlns:sodipodi="http://sodipodi.sourceforge.net/DTD/sodipodi-0.dtd"
   xmlns:inkscape="http://www.inkscape.org/namespaces/inkscape"
   version="1.1"
   id="svg4"
   sodipodi:docname="wetland64.svg"
   width="64"
   height="64"
   inkscape:version="0.92.4 5da689c313, 2019-01-14">
  <metadata
     id="metadata10">
    <rdf:RDF>
      <cc:Work
         rdf:about="">
        <dc:format>image/svg+xml</dc:format>
        <dc:type
           rdf:resource="http://purl.org/dc/dcmitype/StillImage" />
        <dc:title></dc:title>
      </cc:Work>
    </rdf:RDF>
  </metadata>
  <defs
     id="defs8" />
  <path
     style="color:#000000;clip-rule:nonzero;display:inline;overflow:visible;visibility:visible;opacity:1;isolation:auto;mix-blend-mode:normal;color-interpolation:sRGB;color-interpolation-filters:linearRGB;solid-color:#000000;solid-opacity:1;vector-effect:none;fill:#94c1e1;fill-opacity:1;fill-rule:evenodd;stroke:none;stroke-width:20;stroke-linecap:butt;stroke-linejoin:miter;stroke-miterlimit:4;stroke-dasharray:none;stroke-dashoffset:0;stroke-opacity:1;marker:none;color-rendering:auto;image-rendering:auto;shape-rendering:auto;text-rendering:auto;enable-background:accumulate"
     clip-path="none"
     d="M 9 1.0605469 L 9 2.0605469 L 16 2.0605469 L 16 1.0605469 L 9 1.0605469 z M 41 1.0605469 L 41 2.0605469 L 48 2.0605469 L 48 1.0605469 L 41 1.0605469 z M 27 2.0605469 L 27 3.0605469 L 34 3.0605469 L 34 2.0605469 L 27 2.0605469 z M 0 3.0605469 L 0 4.0605469 L 3 4.0605469 L 3 3.0605469 L 0 3.0605469 z M 61 4.0605469 L 61 5.0605469 L 64 5.0605469 L 64 4.0605469 L 61 4.0605469 z M 17 5.0605469 L 17 6.0605469 L 24 6.0605469 L 24 5.0605469 L 17 5.0605469 z M 51 5.0605469 L 51 6.0605469 L 58 6.0605469 L 58 5.0605469 L 51 5.0605469 z M 4 6.0605469 L 4 7.0605469 L 11 7.0605469 L 11 6.0605469 L 4 6.0605469 z M 41 6.0605469 L 41 7.0605469 L 48 7.0605469 L 48 6.0605469 L 41 6.0605469 z M 24 8.0605469 L 24 9.0605469 L 31 9.0605469 L 31 8.0605469 L 24 8.0605469 z M 11 9.0605469 L 11 10.060547 L 18 10.060547 L 18 9.0605469 L 11 9.0605469 z M 36 9.0605469 L 36 10.060547 L 43 10.060547 L 43 9.0605469 L 36 9.0605469 z M 53 10.060547 L 53 11.060547 L 60 11.060547 L 60 10.060547 L 53 10.060547 z M 0 11.060547 L 0 12.060547 L 6 12.060547 L 6 11.060547 L 0 11.060547 z M 62 13.060547 L 62 14.060547 L 64 14.060547 L 64 13.060547 L 62 13.060547 z M 22 14.060547 L 22 15.060547 L 29 15.060547 L 29 14.060547 L 22 14.060547 z M 38 14.060547 L 38 15.060547 L 45 15.060547 L 45 14.060547 L 38 14.060547 z M 9 15.060547 L 9 16.060547 L 16 16.060547 L 16 15.060547 L 9 15.060547 z M 50 16.060547 L 50 17.060547 L 57 17.060547 L 57 16.060547 L 50 16.060547 z M 0 18.060547 L 0 19.060547 L 7 19.060547 L 7 18.060547 L 0 18.060547 z M 61 18.060547 L 61 19.060547 L 64 19.060547 L 64 18.060547 L 61 18.060547 z M 18 19.060547 L 18 20.060547 L 25 20.060547 L 25 19.060547 L 18 19.060547 z M 32 19.060547 L 32 20.060547 L 39 20.060547 L 39 19.060547 L 32 19.060547 z M 44 19.060547 L 44 20.060547 L 51 20.060547 L 51 19.060547 L 44 19.060547 z M 9 22.060547 L 9 23.060547 L 16 23.060547 L 16 22.060547 L 9 22.060547 z M 23 22.060547 L 23 23.060547 L 30 23.060547 L 30 22.060547 L 23 22.060547 z M 53 22.060547 L 53 23.060547 L 60 23.060547 L 60 22.060547 L 53 22.060547 z M 0 23.060547 L 0 24.060547 L 3 24.060547 L 3 23.060547 L 0 23.060547 z M 35 25.060547 L 35 26.060547 L 42 26.060547 L 42 25.060547 L 35 25.060547 z M 46 26.060547 L 46 27.060547 L 53 27.060547 L 53 26.060547 L 46 26.060547 z M 14 27.060547 L 14 28.060547 L 21 28.060547 L 21 27.060547 L 14 27.060547 z M 58 27.060547 L 58 28.060547 L 64 28.060547 L 64 27.060547 L 58 27.060547 z M 0 28.060547 L 0 29.060547 L 1 29.060547 L 1 28.060547 L 0 28.060547 z M 26 28.060547 L 26 29.060547 L 33 29.060547 L 33 28.060547 L 26 28.060547 z M 6 30.060547 L 6 31.060547 L 13 31.060547 L 13 30.060547 L 6 30.060547 z M 38 30.060547 L 38 31.060547 L 45 31.060547 L 45 30.060547 L 38 30.060547 z M 51 31.060547 L 51 32.060547 L 58 32.060547 L 58 31.060547 L 51 31.060547 z M 0 33.060547 L 0 34.060547 L 4 34.060547 L 4 33.060547 L 0 33.060547 z M 18 33.060547 L 18 34.060547 L 25 34.060547 L 25 33.060547 L 18 33.060547 z M 29 34.060547 L 29 35.060547 L 36 35.060547 L 36 34.060547 L 29 34.060547 z M 9 36.060547 L 9 37.060547 L 16 37.060547 L 16 36.060547 L 9 36.060547 z M 41 36.060547 L 41 37.060547 L 48 37.060547 L 48 36.060547 L 41 36.060547 z M 58 36.060547 L 58 37.060547 L 64 37.060547 L 64 36.060547 L 58 36.060547 z M 17 39.060547 L 17 40.060547 L 24 40.060547 L 24 39.060547 L 17 39.060547 z M 34 39.060547 L 34 40.060547 L 41 40.060547 L 41 39.060547 L 34 39.060547 z M 0 40.060547 L 0 41.060547 L 5 41.060547 L 5 40.060547 L 0 40.060547 z M 47 40.060547 L 47 41.060547 L 54 41.060547 L 54 40.060547 L 47 40.060547 z M 58 41.060547 L 58 42.060547 L 64 42.060547 L 64 41.060547 L 58 41.060547 z M 26 42.060547 L 26 43.060547 L 33 43.060547 L 33 42.060547 L 26 42.060547 z M 11 43.060547 L 11 44.060547 L 18 44.060547 L 18 43.060547 L 11 43.060547 z M 2 45.060547 L 2 46.060547 L 9 46.060547 L 9 45.060547 L 2 45.060547 z M 49 45.060547 L 49 46.060547 L 56 46.060547 L 56 45.060547 L 49 45.060547 z M 17 46.060547 L 17 47.060547 L 24 47.060547 L 24 46.060547 L 17 46.060547 z M 34 46.060547 L 34 47.060547 L 41 47.060547 L 41 46.060547 L 34 46.060547 z M 26 49.060547 L 26 50.060547 L 33 50.060547 L 33 49.060547 L 26 49.060547 z M 43 49.060547 L 43 50.060547 L 50 50.060547 L 50 49.060547 L 43 49.060547 z M 0 50.060547 L 0 51.060547 L 2 51.060547 L 2 50.060547 L 0 50.060547 z M 58 50.060547 L 58 51.060547 L 64 51.060547 L 64 50.060547 L 58 50.060547 z M 5 51.060547 L 5 52.060547 L 12 52.060547 L 12 51.060547 L 5 51.060547 z M 20 53.060547 L 20 54.060547 L 27 54.060547 L 27 53.060547 L 20 53.060547 z M 34 53.060547 L 34 54.060547 L 41 54.060547 L 41 53.060547 L 34 53.060547 z M 9 55.060547 L 9 56.060547 L 16 56.060547 L 16 55.060547 L 9 55.060547 z M 56 55.060547 L 56 56.060547 L 63 56.060547 L 63 55.060547 L 56 55.060547 z M 41 56.060547 L 41 57.060547 L 48 57.060547 L 48 56.060547 L 41 56.060547 z M 28 58.060547 L 28 59.060547 L 35 59.060547 L 35 58.060547 L 28 58.060547 z M 2 59.060547 L 2 60.060547 L 9 60.060547 L 9 59.060547 L 2 59.060547 z M 16 59.060547 L 16 60.060547 L 23 60.060547 L 23 59.060547 L 16 59.060547 z M 49 59.060547 L 49 60.060547 L 56 60.060547 L 56 59.060547 L 49 59.060547 z M 62 60.060547 L 62 61.060547 L 64 61.060547 L 64 60.060547 L 62 60.060547 z M 41 62.060547 L 41 63.060547 L 48 63.060547 L 48 62.060547 L 41 62.060547 z M 8.2714844 62.439453 L 8.2714844 63.439453 L 15.271484 63.439453 L 15.271484 62.439453 L 8.2714844 62.439453 z M 53.8125 63 L 53.8125 64 L 60.8125 64 L 60.8125 63 L 53.8125 63 z "
     id="rect193" />
  <sodipodi:namedview
     pagecolor="#ffffff"
     bordercolor="#666666"
     borderopacity="1"
     objecttolerance="10"
     gridtolerance="10"
     guidetolerance="10"
     inkscape:pageopacity="0"
     inkscape:pageshadow="2"
     inkscape:window-width="1884"
     inkscape:window-height="1061"
     id="namedview6"
     showgrid="false"
     inkscape:zoom="8.3146239"
     inkscape:cx="13.732205"
     inkscape:cy="29.843207"
     inkscape:window-x="0"
     inkscape:window-y="0"
     inkscape:window-maximized="1"
     inkscape:current-layer="svg4" />
</svg>
