<?xml version="1.0" encoding="UTF-8" standalone="no"?>
<svg
   xmlns:dc="http://purl.org/dc/elements/1.1/"
   xmlns:cc="http://creativecommons.org/ns#"
   xmlns:rdf="http://www.w3.org/1999/02/22-rdf-syntax-ns#"
   xmlns:svg="http://www.w3.org/2000/svg"
   xmlns="http://www.w3.org/2000/svg"
   xmlns:sodipodi="http://sodipodi.sourceforge.net/DTD/sodipodi-0.dtd"
   xmlns:inkscape="http://www.inkscape.org/namespaces/inkscape"
   version="1.1"
   id="svg4"
   sodipodi:docname="wetland8.svg"
   width="8"
   height="8"
   inkscape:version="0.92.4 5da689c313, 2019-01-14">
  <metadata
     id="metadata10">
    <rdf:RDF>
      <cc:Work
         rdf:about="">
        <dc:format>image/svg+xml</dc:format>
        <dc:type
           rdf:resource="http://purl.org/dc/dcmitype/StillImage" />
        <dc:title></dc:title>
      </cc:Work>
    </rdf:RDF>
  </metadata>
  <defs
     id="defs8" />
  <path
     style="color:#000000;clip-rule:nonzero;display:inline;overflow:visible;visibility:visible;opacity:1;isolation:auto;mix-blend-mode:normal;color-interpolation:sRGB;color-interpolation-filters:linearRGB;solid-color:#000000;solid-opacity:1;vector-effect:none;fill:#94c1e1;fill-opacity:1;fill-rule:evenodd;stroke:none;stroke-width:20;stroke-linecap:butt;stroke-linejoin:miter;stroke-miterlimit:4;stroke-dasharray:none;stroke-dashoffset:0;stroke-opacity:1;marker:none;color-rendering:auto;image-rendering:auto;shape-rendering:auto;text-rendering:auto;enable-background:accumulate"
     clip-path="none"
     d="m 1.125,0.13256836 v 0.125 H 2 v -0.125 z m 4,0 v 0.125 H 6 v -0.125 z m -1.75,0.125 v 0.125 H 4.25 v -0.125 z m -3.375,0.125 v 0.125 h 0.375 v -0.125 z m 7.625,0.125 v 0.125 H 8 v -0.125 z m -5.5,0.125 v 0.125 H 3 v -0.125 z m 4.25,0 v 0.125 H 7.25 v -0.125 z m -5.875,0.125 v 0.125 h 0.875 v -0.125 z m 4.625,0 v 0.125 H 6 v -0.125 z M 3,1.0075684 v 0.125 h 0.875 v -0.125 z m -1.625,0.125 v 0.125 H 2.25 v -0.125 z m 3.125,0 v 0.125 h 0.875 v -0.125 z m 2.125,0.125 v 0.125 H 7.5 v -0.125 z M 0,1.3825684 v 0.125 h 0.75 v -0.125 z m 7.75,0.25 v 0.125 H 8 v -0.125 z m -5,0.125 v 0.125 h 0.875 v -0.125 z m 2,0 v 0.125 h 0.875 v -0.125 z m -3.625,0.125 V 2.007568 H 2 V 1.8825684 Z M 6.25,2.007568 v 0.125 h 0.875 v -0.125 z m -6.25,0.25 v 0.125 h 0.875 v -0.125 z m 7.625,0 v 0.125 H 8 v -0.125 z m -5.375,0.125 v 0.125 h 0.875 v -0.125 z m 1.75,0 v 0.125 h 0.875 v -0.125 z m 1.5,0 v 0.125 h 0.875 v -0.125 z m -4.375,0.375 v 0.125 H 2 v -0.125 z m 1.75,0 v 0.125 H 3.75 v -0.125 z m 3.75,0 v 0.125 H 7.5 v -0.125 z M 0,2.882568 v 0.125 h 0.375 v -0.125 z m 4.375,0.25 v 0.125 H 5.25 v -0.125 z m 1.375,0.125 v 0.125 h 0.875 v -0.125 z m -4,0.125 v 0.125 h 0.875 v -0.125 z m 5.5,0 v 0.125 H 8 v -0.125 z M 0,3.507568 v 0.125 h 0.125 v -0.125 z m 3.25,0 v 0.125 h 0.875 v -0.125 z m -2.5,0.25 v 0.125 h 0.875 v -0.125 z m 4,0 v 0.125 h 0.875 v -0.125 z m 1.625,0.125 v 0.125 H 7.25 v -0.125 z M 0,4.132568 v 0.125 h 0.5 v -0.125 z m 2.25,0 v 0.125 h 0.875 v -0.125 z m 1.375,0.125 v 0.125 H 4.5 v -0.125 z m -2.5,0.25 v 0.125 H 2 v -0.125 z m 4,0 v 0.125 H 6 v -0.125 z m 2.125,0 v 0.125 H 8 v -0.125 z m -5.125,0.375 v 0.125 H 3 v -0.125 z m 2.125,0 v 0.125 h 0.875 v -0.125 z M 0,5.007568 v 0.125 h 0.625 v -0.125 z m 5.875,0 v 0.125 H 6.75 v -0.125 z m 1.375,0.125 v 0.125 H 8 v -0.125 z m -4,0.125 v 0.125 h 0.875 v -0.125 z m -1.875,0.125 v 0.125 H 2.25 v -0.125 z m -1.125,0.25 v 0.125 h 0.875 v -0.125 z m 5.875,0 v 0.125 H 7 v -0.125 z m -4,0.125 v 0.125 H 3 v -0.125 z m 2.125,0 v 0.125 h 0.875 v -0.125 z m -1,0.375 v 0.125 h 0.875 v -0.125 z m 2.125,0 v 0.125 H 6.25 v -0.125 z M 0,6.257568 v 0.125 h 0.25 v -0.125 z m 7.25,0 v 0.125 H 8 v -0.125 z m -6.625,0.125 v 0.125 H 1.5 v -0.125 z m 1.875,0.25 v 0.125 h 0.875 v -0.125 z m 1.75,0 v 0.125 h 0.875 v -0.125 z m -3.125,0.25 v 0.125 H 2 v -0.125 z m 5.875,0 v 0.125 h 0.875 v -0.125 z m -1.875,0.125 v 0.125 H 6 v -0.125 z m -1.625,0.25 v 0.125 h 0.875 v -0.125 z m -3.25,0.125 v 0.125 h 0.875 v -0.125 z m 1.75,0 v 0.125 h 0.875 v -0.125 z m 4.125,0 v 0.125 H 7 v -0.125 z m 1.625,0.125 v 0.125 H 8 v -0.125 z m -2.625,0.25 v 0.125 H 6 v -0.125 z m -4.0910645,0.04737 v 0.125 h 0.875 v -0.125 z M 6.7265625,7.875 V 8 h 0.875 V 7.875 Z"
     id="rect193"
     inkscape:connector-curvature="0" />
  <sodipodi:namedview
     pagecolor="#ffffff"
     bordercolor="#666666"
     borderopacity="1"
     objecttolerance="10"
     gridtolerance="10"
     guidetolerance="10"
     inkscape:pageopacity="0"
     inkscape:pageshadow="2"
     inkscape:window-width="1884"
     inkscape:window-height="1061"
     id="namedview6"
     showgrid="false"
     inkscape:zoom="8.3146239"
     inkscape:cx="13.732205"
     inkscape:cy="29.843207"
     inkscape:window-x="0"
     inkscape:window-y="0"
     inkscape:window-maximized="1"
     inkscape:current-layer="svg4"
     fit-margin-top="0"
     fit-margin-left="0"
     fit-margin-right="0"
     fit-margin-bottom="0" />
</svg>
