<?xml version="1.0" encoding="UTF-8" standalone="no"?>
<svg
   xmlns:dc="http://purl.org/dc/elements/1.1/"
   xmlns:cc="http://creativecommons.org/ns#"
   xmlns:rdf="http://www.w3.org/1999/02/22-rdf-syntax-ns#"
   xmlns:svg="http://www.w3.org/2000/svg"
   xmlns="http://www.w3.org/2000/svg"
   xmlns:sodipodi="http://sodipodi.sourceforge.net/DTD/sodipodi-0.dtd"
   xmlns:inkscape="http://www.inkscape.org/namespaces/inkscape"
   version="1.1"
   id="svg4"
   sodipodi:docname="wetland32.svg"
   width="32"
   height="32"
   inkscape:version="0.92.4 5da689c313, 2019-01-14">
  <metadata
     id="metadata10">
    <rdf:RDF>
      <cc:Work
         rdf:about="">
        <dc:format>image/svg+xml</dc:format>
        <dc:type
           rdf:resource="http://purl.org/dc/dcmitype/StillImage" />
        <dc:title></dc:title>
      </cc:Work>
    </rdf:RDF>
  </metadata>
  <defs
     id="defs8" />
  <path
     style="color:#000000;clip-rule:nonzero;display:inline;overflow:visible;visibility:visible;opacity:1;isolation:auto;mix-blend-mode:normal;color-interpolation:sRGB;color-interpolation-filters:linearRGB;solid-color:#000000;solid-opacity:1;vector-effect:none;fill:#94c1e1;fill-opacity:1;fill-rule:evenodd;stroke:none;stroke-width:20;stroke-linecap:butt;stroke-linejoin:miter;stroke-miterlimit:4;stroke-dasharray:none;stroke-dashoffset:0;stroke-opacity:1;marker:none;color-rendering:auto;image-rendering:auto;shape-rendering:auto;text-rendering:auto;enable-background:accumulate"
     clip-path="none"
     d="M 4.5,0.53027344 V 1.0302734 H 8 V 0.53027344 Z m 16,0 V 1.0302734 H 24 V 0.53027344 Z m -7,0.49999996 v 0.5 H 17 v -0.5 z m -13.5,0.5 v 0.5 h 1.5 v -0.5 z m 30.5,0.5 v 0.5 H 32 v -0.5 z m -22,0.5 v 0.5 H 12 v -0.5 z m 17,0 v 0.5 H 29 v -0.5 z m -23.5,0.5 v 0.5 h 3.5 v -0.5 z m 18.5,0 v 0.5 H 24 v -0.5 z m -8.5,1 v 0.5 h 3.5 v -0.5 z m -6.5,0.5 v 0.5 H 9 v -0.5 z m 12.5,0 v 0.5 h 3.5 v -0.5 z m 8.5,0.5 v 0.5 H 30 v -0.5 z m -26.5,0.5 v 0.5 h 3 v -0.5 z m 31,1 v 0.5 h 1 v -0.5 z m -20,0.5 v 0.5 h 3.5 v -0.5 z m 8,0 v 0.5 h 3.5 v -0.5 z m -14.5,0.5 v 0.5 H 8 v -0.5 z m 20.5,0.5 v 0.5 h 3.5 v -0.5 z m -25,1 v 0.5 h 3.5 v -0.5 z m 30.5,0 v 0.5 H 32 v -0.5 z m -21.5,0.5 v 0.4999996 h 3.5 V 9.5302734 Z m 7,0 v 0.4999996 h 3.5 V 9.5302734 Z m 6,0 v 0.4999996 h 3.5 V 9.5302734 Z M 4.5,11.030273 v 0.5 H 8 v -0.5 z m 7,0 v 0.5 H 15 v -0.5 z m 15,0 v 0.5 H 30 v -0.5 z m -26.5,0.5 v 0.5 h 1.5 v -0.5 z m 17.5,1 v 0.5 H 21 v -0.5 z m 5.5,0.5 v 0.5 h 3.5 v -0.5 z m -16,0.5 v 0.5 h 3.5 v -0.5 z m 22,0 v 0.5 h 3 v -0.5 z m -29,0.5 v 0.5 h 0.5 v -0.5 z m 13,0 v 0.5 h 3.5 v -0.5 z m -10,1 v 0.5 h 3.5 v -0.5 z m 16,0 v 0.5 h 3.5 v -0.5 z m 6.5,0.5 v 0.5 H 29 v -0.5 z m -25.5,1 v 0.5 h 2 v -0.5 z m 9,0 v 0.5 h 3.5 v -0.5 z m 5.5,0.5 v 0.5 H 18 v -0.5 z m -10,1 v 0.5 H 8 v -0.5 z m 16,0 v 0.5 H 24 v -0.5 z m 8.5,0 v 0.5 h 3 v -0.5 z m -20.5,1.5 v 0.5 H 12 v -0.5 z m 8.5,0 v 0.5 h 3.5 v -0.5 z m -17,0.5 v 0.5 h 2.5 v -0.5 z m 23.5,0 v 0.5 H 27 v -0.5 z m 5.5,0.5 v 0.5 h 3 v -0.5 z m -16,0.5 v 0.5 h 3.5 v -0.5 z m -7.5,0.5 v 0.5 H 9 v -0.5 z m -4.5,1 v 0.5 h 3.5 v -0.5 z m 23.5,0 v 0.5 H 28 v -0.5 z m -16,0.5 v 0.5 H 12 v -0.5 z m 8.5,0 v 0.5 h 3.5 v -0.5 z m -4,1.5 v 0.5 h 3.5 v -0.5 z m 8.5,0 v 0.5 H 25 v -0.5 z m -21.5,0.5 v 0.5 h 1 v -0.5 z m 29,0 v 0.5 h 3 v -0.5 z m -26.5,0.5 v 0.5 H 6 v -0.5 z m 7.5,1 v 0.5 h 3.5 v -0.5 z m 7,0 v 0.5 h 3.5 v -0.5 z m -12.5,1 v 0.5 H 8 v -0.5 z m 23.5,0 v 0.5 h 3.5 v -0.5 z m -7.5,0.5 v 0.5 H 24 v -0.5 z m -6.5,1 v 0.5 h 3.5 v -0.5 z m -13,0.5 v 0.5 h 3.5 v -0.5 z m 7,0 v 0.5 h 3.5 v -0.5 z m 16.5,0 v 0.5 H 28 v -0.5 z m 6.5,0.5 v 0.5 h 1 v -0.5 z m -10.5,1 v 0.5 H 24 v -0.5 z M 4.1357422,31.219726 v 0.5 H 7.635742 v -0.5 z M 26.90625,31.5 V 32 h 3.5 v -0.5 z"
     id="rect193"
     inkscape:connector-curvature="0" />
  <sodipodi:namedview
     pagecolor="#ffffff"
     bordercolor="#666666"
     borderopacity="1"
     objecttolerance="10"
     gridtolerance="10"
     guidetolerance="10"
     inkscape:pageopacity="0"
     inkscape:pageshadow="2"
     inkscape:window-width="1884"
     inkscape:window-height="1061"
     id="namedview6"
     showgrid="false"
     inkscape:zoom="8.3146239"
     inkscape:cx="13.732205"
     inkscape:cy="29.843207"
     inkscape:window-x="0"
     inkscape:window-y="0"
     inkscape:window-maximized="1"
     inkscape:current-layer="svg4"
     fit-margin-top="0"
     fit-margin-left="0"
     fit-margin-right="0"
     fit-margin-bottom="0" />
</svg>
