<?xml version="1.0" encoding="UTF-8" standalone="no"?>
<svg
   xmlns:dc="http://purl.org/dc/elements/1.1/"
   xmlns:cc="http://creativecommons.org/ns#"
   xmlns:rdf="http://www.w3.org/1999/02/22-rdf-syntax-ns#"
   xmlns:svg="http://www.w3.org/2000/svg"
   xmlns="http://www.w3.org/2000/svg"
   xmlns:sodipodi="http://sodipodi.sourceforge.net/DTD/sodipodi-0.dtd"
   xmlns:inkscape="http://www.inkscape.org/namespaces/inkscape"
   version="1.1"
   id="svg4"
   sodipodi:docname="wetland16.svg"
   width="16"
   height="16"
   inkscape:version="0.92.4 5da689c313, 2019-01-14">
  <metadata
     id="metadata10">
    <rdf:RDF>
      <cc:Work
         rdf:about="">
        <dc:format>image/svg+xml</dc:format>
        <dc:type
           rdf:resource="http://purl.org/dc/dcmitype/StillImage" />
        <dc:title></dc:title>
      </cc:Work>
    </rdf:RDF>
  </metadata>
  <defs
     id="defs8" />
  <path
     style="color:#000000;clip-rule:nonzero;display:inline;overflow:visible;visibility:visible;opacity:1;isolation:auto;mix-blend-mode:normal;color-interpolation:sRGB;color-interpolation-filters:linearRGB;solid-color:#000000;solid-opacity:1;vector-effect:none;fill:#94c1e1;fill-opacity:1;fill-rule:evenodd;stroke:none;stroke-width:20;stroke-linecap:butt;stroke-linejoin:miter;stroke-miterlimit:4;stroke-dasharray:none;stroke-dashoffset:0;stroke-opacity:1;marker:none;color-rendering:auto;image-rendering:auto;shape-rendering:auto;text-rendering:auto;enable-background:accumulate"
     clip-path="none"
     d="m 2.25,0.26513672 v 0.25 H 4 v -0.25 z m 8,0 v 0.25 H 12 v -0.25 z m -3.5,0.25 v 0.25 H 8.5 v -0.25 z m -6.75,0.25 V 1.0151367 H 0.75 V 0.76513672 Z M 15.25,1.0151367 v 0.25 H 16 v -0.25 z m -11,0.25 v 0.25 H 6 v -0.25 z m 8.5,0 v 0.25 h 1.75 v -0.25 z m -11.75,0.25 v 0.25 h 1.75 v -0.25 z m 9.25,0 v 0.25 H 12 v -0.25 z m -4.25,0.5 v 0.25 h 1.75 v -0.25 z m -3.25,0.25 v 0.25 H 4.5 v -0.25 z m 6.25,0 v 0.25 h 1.75 v -0.25 z m 4.25,0.25 v 0.25 H 15 v -0.25 z m -13.25,0.25 v 0.25 h 1.5 v -0.25 z m 15.5,0.5 v 0.25 H 16 v -0.25 z m -10,0.25 v 0.25 h 1.75 v -0.25 z m 4,0 v 0.25 h 1.75 v -0.25 z m -7.25,0.25 v 0.25 H 4 v -0.25 z m 10.25,0.25 v 0.25 h 1.75 v -0.25 z m -12.5,0.5 v 0.25 h 1.75 v -0.25 z m 15.25,0 v 0.25 H 16 v -0.25 z m -10.75,0.25 v 0.249999 h 1.75 v -0.249999 z m 3.5,0 v 0.249999 h 1.75 v -0.249999 z m 3,0 v 0.249999 h 1.75 v -0.249999 z m -8.75,0.749999 v 0.25 H 4 v -0.25 z m 3.5,0 v 0.25 H 7.5 v -0.25 z m 7.5,0 v 0.25 H 15 v -0.25 z m -13.25,0.25 v 0.25 h 0.75 v -0.25 z m 8.75,0.5 v 0.25 h 1.75 v -0.25 z m 2.75,0.25 v 0.25 h 1.75 v -0.25 z m -8,0.25 v 0.25 h 1.75 v -0.25 z m 11,0 v 0.25 H 16 v -0.25 z m -14.5,0.25 v 0.25 h 0.25 v -0.25 z m 6.5,0 v 0.25 h 1.75 v -0.25 z m -5,0.5 v 0.25 h 1.75 v -0.25 z m 8,0 v 0.25 h 1.75 v -0.25 z m 3.25,0.25 v 0.25 h 1.75 v -0.25 z m -12.75,0.5 v 0.25 h 1 v -0.25 z m 4.5,0 v 0.25 h 1.75 v -0.25 z m 2.75,0.25 v 0.25 H 9 v -0.25 z m -5,0.5 v 0.25 H 4 v -0.25 z m 8,0 v 0.25 H 12 v -0.25 z m 4.25,0 v 0.25 H 16 v -0.25 z m -10.25,0.75 V 10.015136 H 6 V 9.7651357 Z m 4.25,0 v 0.2500003 h 1.75 V 9.7651357 Z M 0,10.015136 v 0.25 h 1.25 v -0.25 z m 11.75,0 v 0.25 h 1.75 v -0.25 z m 2.75,0.25 v 0.25 H 16 v -0.25 z m -8,0.25 v 0.25 h 1.75 v -0.25 z m -3.75,0.25 v 0.25 H 4.5 v -0.25 z m -2.25,0.5 v 0.25 h 1.75 v -0.25 z m 11.75,0 v 0.25 H 14 v -0.25 z m -8,0.25 v 0.25 H 6 v -0.25 z m 4.25,0 v 0.25 h 1.75 v -0.25 z m -2,0.75 v 0.25 h 1.75 v -0.25 z m 4.25,0 v 0.25 h 1.75 v -0.25 z m -10.75,0.25 v 0.25 h 0.5 v -0.25 z m 14.5,0 v 0.25 H 16 v -0.25 z m -13.25,0.25 v 0.25 H 3 v -0.25 z m 3.75,0.5 v 0.25 h 1.75 v -0.25 z m 3.5,0 v 0.25 h 1.75 v -0.25 z m -6.25,0.5 v 0.25 H 4 v -0.25 z m 11.75,0 v 0.25 h 1.75 v -0.25 z m -3.75,0.25 v 0.25 H 12 v -0.25 z m -3.25,0.5 v 0.25 h 1.75 v -0.25 z m -6.5,0.25 v 0.25 h 1.75 v -0.25 z m 3.5,0 v 0.25 h 1.75 v -0.25 z m 8.25,0 v 0.25 H 14 v -0.25 z m 3.25,0.25 v 0.25 H 16 v -0.25 z m -5.25,0.5 v 0.25 H 12 v -0.25 z m -8.1821289,0.09473 v 0.25 H 3.817871 v -0.25 z M 13.453125,15.75 V 16 h 1.75 v -0.25 z"
     id="rect193"
     inkscape:connector-curvature="0" />
  <sodipodi:namedview
     pagecolor="#ffffff"
     bordercolor="#666666"
     borderopacity="1"
     objecttolerance="10"
     gridtolerance="10"
     guidetolerance="10"
     inkscape:pageopacity="0"
     inkscape:pageshadow="2"
     inkscape:window-width="1884"
     inkscape:window-height="1061"
     id="namedview6"
     showgrid="false"
     inkscape:zoom="8.3146239"
     inkscape:cx="13.732205"
     inkscape:cy="29.843207"
     inkscape:window-x="0"
     inkscape:window-y="0"
     inkscape:window-maximized="1"
     inkscape:current-layer="svg4"
     fit-margin-top="0"
     fit-margin-left="0"
     fit-margin-right="0"
     fit-margin-bottom="0" />
</svg>
